<svg version="1.1" id="Layer_1" xmlns="http://www.w3.org/2000/svg" xmlns:xlink="http://www.w3.org/1999/xlink" x="0px" y="0px"
	 viewBox="0 0 711 666" style="enable-background:new 0 0 711 666;" xml:space="preserve">
<style type="text/css">
	.pattern-st0{clip-path:url(#PATTERN_SVGID_2_);fill:currentcolor;}
</style>
<g>
	<defs>
		<rect id="PATTERN_SVGID_1_" x="3.1" y="23" width="702.5" height="620.9"/>
	</defs>
	<clipPath id="PATTERN_SVGID_2_">
		<use xlink:href="#PATTERN_SVGID_1_" style="overflow:visible;"/>
	</clipPath>
	<path class="pattern-st0" d="M96.2,237.1c0.5-0.8,0.9-1.6,1.5-2.7c-1.2,0.1-2.1,0.1-3.4,0.2c0.6-1.2,1-2,1.3-2.7c1.5-1.1,3.8,0,4.7-2.1
		c-0.2-1.4-1.7-0.6-2.2-1.4c-0.5-0.6-0.8-1.4-1.3-2.4c0.9-0.4,1.8-1.2,2.8-1.2c1.5,0,2.6-0.8,3.7-1.5c2.3-1.4,4.4-3.1,6.8-4.7
		c-0.4-0.8-0.7-1.6-1.1-2.5c1-0.5,2.1-1,3.2-1.5c0.4-0.2,0.8-0.6,1.1-0.6c3,0.5,4-1.6,5.1-3.6c0.3-0.6,0.8-1.1,0.9-1.3
		c3.7-1.9,7.3-0.8,10.7-1.4c0.6-0.1,1.3,0.3,1.9,0.5c2.7,1,5.3,0.6,7.7-1c2.5-1.7,5.1-2.9,8.2-3.2c1.7-0.1,3.5-0.8,4.6-2.3
		c0.8,0.2,1.4,0.3,2.1,0.4c1.6-2.6,3.8-4.5,6.9-5.2c1.6-0.4,3.1-0.9,4.7-1.3c3.4-0.7,6.4-2.4,9.4-3.9c4.3-2.2,8.6-4.5,13.1-6.5
		c2.8-1.3,5.3-3.2,8-4.8c3.1-1.9,6.4-3.4,10.1-4.1l-0.1-0.1c0,1.7-1.5,2.3-2.5,2.9c-3.2,2-6.6,3.7-10,5.5c-1.5,0.8-3,1.8-4.4,2.9
		c-2.3,1.7-4.9,2.8-7.5,4c-4.3,1.9-8.1,4.5-11.9,7c-0.3,0.2-0.6,0.6-0.8,0.9c0,0.9,0.6,1.3,1.3,1.2c1.6-0.2,3.3,0.2,4.7-0.8
		c0.1-0.1,0.2-0.2,0.4-0.2c3.4,0.1,5.7-2.2,8.4-3.5c4.2-2,8.2-4.1,12-6.9c0.5-0.4,1.2-0.7,1.8-0.9c4.2-1.5,7.4-4.5,10.7-7.2
		c1.3-1.1,2.5-2.4,3.9-3.5c1.9-1.4,2.8-3.2,3.2-5.5l-0.1,0.1c0.6,0,1.3,0.2,1.9,0.1c0.9-0.1,1.4-0.7,1.4-1.6c0-1.1-0.8-1.1-1.6-1
		l0,0c0.5-0.5,0.9-1.1,1.4-1.4c3.2-2,6.1-4.5,9.7-5.8c2.7-0.9,4.7-3.1,7.6-3.8c0.3-0.1,0.6-0.5,0.9-0.8c1.6-2,3.8-3.1,6.5-3
		c1.2-3.3,4.6-2.8,6.8-4.2c0.8,0.7,0.3,1-0.1,1.4c-0.1,0.1-0.2,0.2-0.3,0.3c-2,3.6-5.3,5.5-8.8,7.3c-0.7,0.4-1.2,1.1-1.8,1.6
		c-0.9,0.7-1.8,1.6-3,2c-1.2,0.4-2.1,1.6-3.1,2.5c-0.9,0.8-1.8,1.7-1.7,3.3c0.4,0.2,0.8,0.5,1.3,0.5c2.4,0,4.5-1,6.3-2.6
		c3-2.8,6.7-4.6,9.9-7.2c2.1-1.7,4.6-2.9,7-4c0.1,0.2,0.1,0.6,0.2,0.7c0.3,0.1,0.7,0.1,1,0.1c0,0,0.1-0.3,0-0.3
		c-0.2-0.2-0.4-0.3-0.6-0.4c-0.2-0.1-0.5,0-0.8,0c0.5-0.5,0.9-1.2,1.4-1.3c2.4-0.6,4-2.3,5.3-4.2c1-1.6,2.3-2.7,3.8-3.8
		c1.2-0.8,2.3-1.9,3.3-2.9c0.2-0.2,0.2-0.7,0.4-1.4c-0.6,0-1.2-0.1-1.6,0c-2.2,0.9-4.5,1.9-6.7,2.9c-0.8,0.4-1.5,1.1-2.2,1.7
		c-1.9,1.5-4,2.8-6.3,3.5c-0.2,0.1-0.4-0.2-0.7-0.3c0.5-1.9,2.8-2,3.6-3.6l-0.1,0.1c0.5-0.4,1.5-0.9,1.4-1.1
		c-0.5-1.6,0.5-2.6,1.6-2.8c2.8-0.7,4.7-2.5,6.9-4.1c0.8-0.6,1.7-0.9,2.5-1.4c0.4-0.3,0.9-0.6,1.2-1c1.8-2.6,4.1-4.1,7.1-5.2
		c1.3-0.5,2.5-1.5,3.7-2.4c0.8-0.6,1.2-0.2,1.8,0.2l-0.2,0.1l0.2-0.2c0.8-0.3,1.6-0.5,2.4-0.8l-0.1-0.1c-1,1.1-2,2.1-2.9,3.2
		c0.9,1.9,1.5,2.3,2.6,1.7c1.5-0.9,3-1.8,4.5-2.8c1.1-0.8,1.9-1.9,3.4-2c0.2,0,0.5-0.2,0.7-0.4c1.7-2,3.7-3.6,6-4.7
		c1-2.3,3.1-2.3,5.1-2.4c0.5-1.5-0.6-1.3-1.3-1.5l0.1,0.1c1.6-1,3.1-2.1,4.7-3.1c1-0.6,2.1-1.2,3.4-0.8c0.7,0.2,1.3,0.1,1.8-0.5
		c0.8-1.1,2.1-1.6,2.7-2.9c0.4-0.8,1.3-0.9,2.2-0.7l-0.1-0.1c-0.3,0.4-0.7,0.8-1,1.3c-0.9,1.6-0.4,2.8,1.1,4c2-1.6,4.1-3,6-4.7
		c2.4-2.1,4.9-3.2,8.1-2.3c1.2,0.4,2.2-0.2,2.8-1.2c0.2-0.4,0.1-1,0.1-1.5c-0.6-0.1-1-0.1-1.4-0.1c0-0.2-0.1-0.5,0-0.6
		c0.6-0.5,1.3-1,1.9-1.4c1-0.7,2-1.3,3-2c1.5-1.2,2.9-2.2,4.7-2.8c1.6-0.5,3.2-1.2,4.7-1.9c1.5-0.7,2.4-2.5,3.8-3.6
		c1-0.8,2.2-1.6,3.5-2c2.2-0.9,4.1-2.1,5.6-3.9c2.1,2.2,3.1,2.1,4.7-0.2c0.2-0.3,0.5-0.6,0.7-0.8l-0.1-0.1c0.1,0.2,0.2,0.4,0.3,0.6
		c0.2-0.2,0.4-0.4,0.6-0.6l-0.1,0.1c1.2-0.9,2.3-1.9,3.5-2.7c1.6-1.2,3.6-0.9,5.4-1.1c0.4-0.1,0.9,0.5,1.3,0.9
		c0.7,0.9,1.2,1.8,1.8,2.7c-0.4,1.3-0.9,2.5-1.2,3.8c-0.2,0.8,0.7,1.6,1.5,1.4c0.4-0.1,0.8-0.1,1.2-0.3c1.6-1.2,3.5-2.2,4.8-3.7
		c1.5-1.6,2.9-2.4,4.9-1.6c2.3-1.7,4.2-3.8,6.9-4.4c2.6-2.4,6.1-3.6,8.3-6.5l-0.1,0c0.3,0.6,0.4,1.3,0.8,1.7
		c0.6,0.5,1.4,0.6,2.1,0.9c1.8-0.8,3.5-1.5,5.4-2.4c0.3,0.5,0.6,1.1,1,1.6c0.7,0.9,1.5,1,2.5,0.6c1.1-0.5,1.9-1.6,3.2-1.4l-0.1-0.1
		c-1.8,2.6-4.4,4-7.4,4.8c-2.8,0.7-5.2,2.3-7.6,3.8c-0.8,0.5-1.8,1.2-1.9,2c-0.4,2.1-1.8,2.8-3.4,3.6c-2.6,1.3-4.7,3.2-5.3,6.3
		c-0.2,1.1,0.3,1.8,1.5,1.6c1.6-0.2,3.2-0.5,4.9-0.8c0.5-0.7,1.2-1.6,1.8-2.5c2-2.9,5-4,8.3-4.2c0.8-0.1,1.6,0.2,2.2-0.6
		c0.4-0.6,0.8-1.4,1.1-2.1c0.1-0.3,0.2-0.7,0.2-1c0.4,0,0.7-0.2,0.9-0.1c2.6,1.3,4.4,0,6-1.9c0.4-0.5,0.7-1.1,1.1-1.7
		c0.3-0.4,0.5-1.1,1-1.3c3.3-1.3,3.9-5.1,6.6-6.9c0.2-0.2,0.3-1.1,0-1.4c-0.3-0.3-1-0.3-1.4-0.2c-1.3,0.4-2.3,1.4-3.1,2.5
		c-0.4,0.6-1,1.2-1.7,1.9c-1.2-1-2.2-1.9-3.2-2.7l0.1,0.1c2.5-1.6,5.2-2.8,7.3-5.1c0.5-0.6,1.4-0.8,2.1-1.2c1.7-1,3.5-2.1,5.2-3.2
		c1.1-0.7,1.9-2,3.6-1.4c0.3,0.1,1-0.4,1.2-0.8c0.7-1.3,1.2-2.7,1.9-4.1c0.8-0.3,2-0.4,2.5-1c0.9-1.1,1.4-2.6,2-3.8
		c1-0.3,2.1-0.6,3.2-0.9c0.1,1.1,0.4,2.4,0.2,3.5c-0.5,2.6,0.8,4.4,2.3,6.2c1.3,1.6,2.5,3.1,3.8,4.6c1.3,0.2,2.2-0.3,2.9-1.3
		c1.3-1.8,2.6-3.4,3.9-5.1c1.8,0.2,1.6,2.2,3,3h4.3c0.9,2.2,1.8,4.3-0.1,6.4c-0.3,0.4-0.2,1.2-0.3,1.9c1.7,0.9,3.3,0.4,4.9,0.6
		l-0.1-0.1c0.6,0.6,1.4,1,1.7,1.7c1.4,2.8,3.9,2.9,6.3,2.2c2-0.6,4-0.8,6-0.7c1.5,0.1,2.7-0.3,3.7-1.4c1.6-1.6,3.4-3.1,4.3-5.4
		c0.8-2,2.7-3.3,4.2-4.6c3.3-0.1,4.3,2.8,6.4,4.4c-1.1,0.9-2.1,1.7-3.2,2.6c0,1.2,0.3,2.4-0.9,3.3c-0.8,0.6-0.6,1.5-0.1,2.2
		c0.5,0.9,1.3,1.4,2.4,1.2c0.9-0.2,1.9-0.4,2.8-0.6c2.2-0.4,3.7-1.7,4.5-3.7c0.4-1,0.9-1.8,1.7-2.6c1-1,1.4-2.5,2.1-4
		c1.2-0.4,2.5-0.8,4-1.2c0.2-2.5,1.6-4.1,4.2-4.7c0.9-0.2,1.8-0.6,2.7-0.9c2.9-1,3.6-1.8,4-5.2c-1.3-0.9-2.6-1.8-4-2.8
		c0.4-1.7,0.7-3.3,1.1-4.8c-1-1.2-2.4-1.8-3.8-2.3c-1.4-0.6-2.7-1.2-4.2-1.6c-1.5-0.4-3.2-0.6-5-0.9c-0.3-0.3-0.9-0.9-1.5-1.4
		c-0.6-0.5-1.4-0.8-2.1-1.3c-0.1-1.2-0.2-2.2-0.3-3.3l0,0.1c2.3-0.4,4.6-0.5,6.5,1.3c0.3,0.2,0.8,0.5,1.1,0.4c1.9-0.5,3,0.5,4.1,1.8
		c0.5,0.6,1.7,0.9,2.6,1c1.7,0.3,3.5,0.4,5.3,0.5c0.5,0,1.1,0.1,1.6,0c1.7-0.7,3.5-0.2,5.3-0.3c1.2-0.1,2,0.7,2.8,1.5
		c-0.1,1-0.6,2.1-0.3,3c0.2,0.8,1.3,1.3,2,1.9c0.2,0.7-0.5,0.9-0.9,1.2c-1.5,1.3-1.7,1.9-0.6,3.4c0.8,1.1,1.1,2.1,0.9,3.4
		c-0.2,2.1-0.5,4.3-0.7,6.6c0.8,0.8,2.1,1.4,2.4,3c0.1,0.6,0.8,1.3,1.3,1.4c1.8,0.4,2.8,1.6,3.7,3c0.4,0.7,0.9,1,1.6,0.8
		c1-0.2,1.2-1.1,1.1-1.9c0-0.8-0.3-1.6-0.4-2.4c-0.1-0.7-0.2-1.3-0.4-2.1c2.7-1.1,4.9-0.2,6.9,1.4c1.1,0.8,2,1.8,3.1,2.8
		c0.2,2,0.2,2,2.4,3.9c3.5-1.8,7.1-3.7,10.9-5.6c0.6,0.2,1.6,0.4,2.5,0.7c2.2,0.5,2.7,0.2,3.9-1.9c0.3-0.5,0.5-0.9,0.8-1.5
		c2-0.3,4.2,0,5.1-3.2c0.5,1.3,0.8,1.7,0.8,1.9c-0.6,2.6-0.8,5.4-2.2,7.8c-0.3,0.6-0.5,1.3-0.8,1.9c-1.5,2.8-0.9,5.6-0.2,8.4
		c0.3,1.1,1.3,2,2,3.2c-0.6,2.7-2,5.2-3.4,7.6c-1.1,2-2.3,3.9-2.9,6.2c-0.6,2.1-1.4,4.4-2.9,6.2c-0.7,0.8-1.2,1.9-1.4,2.9
		c-0.3,2.5,1.1,4.7,1.4,7.1c0.2,1.5,1.4,2.6,2.8,3.4c0.2,0.1,0.4,0.4,0.5,0.6c0.9,2.8-0.3,5.6-0.6,8.3c-0.1,1.3-1.1,2.4-2.5,3
		c-1.4,0.6-2.6,1.4-3.9,2.1c-2.9,1.7-4.7,4-4.8,7.5c0,0.4-0.2,0.8-0.2,1.2c0,0.1,0.1,0.3,0.2,0.7c1,0.7,2.1,1.6,3.5,2.6
		c-1.1,1.5-2.2,2.9-3.1,4.2c-0.1,2,1.7,2,2.7,2.8c-0.2,0.4-0.3,0.7-0.5,1.1l0.1-0.3l0,0.2c-0.6,0.9-1.5,0.7-2.4,0.7l0.1,0h-1
		l0.1-0.1c0,0.3,0,0.6,0,1l-0.1-0.1c-0.4,1.5-2.2,1.4-2.9,2.8c0.1,0.8,0.1,2,1.1,2.2c1.6,0.3,3.2,0.3,4.6-0.9
		c0.4-0.3,0.7-0.8,0.9-1.3c1-2.5,2.8-4.5,4.2-6.7c1.2-1.9,2.8-3.2,4.6-4.4c1.2-0.9,2.6-0.8,3.8,0.1l0.2,0.1l-0.3-0.1
		c0.3-0.2,0.7-0.4,1-0.5c0.2,0.2,0.6,0.5,0.5,0.6c-0.5,2.7,1,4.9,2,7.2l0.1,0c-0.3,0.3-0.6,0.6-1,1l0.1-0.1
		c-1.4,0.7-0.4,1.9-0.5,2.8c-1,0.5-2.4,0.7-2.7,2.1c-0.2,0.1-0.5,0.3-0.7,0.4c0.1,0,0.3,0.1,0.3,0.1c0.1-0.2,0.2-0.4,0.3-0.6
		c0.4,0.2,0.9,0.5,1.5,0.7c-0.6,0.7-1,1.3-1.6,1.9c-0.6,0.7-0.8,1.4-0.8,2.5c0,1.2-0.2,2.7-1.6,3.6c-0.7,0.5-0.9,1.5-1.3,2
		c0.8,1.3,1.4,2.3,2.1,3.3c-0.2,0.1-0.9-0.1-0.4,0.5c0.1-0.2,0.2-0.4,0.3-0.6c0.4,0.1,0.7,0.2,1.1,0.4c0.8,0.5,1.4,0.4,1.7-0.6
		c0.1-0.2,0.4-0.3,0.6-0.4l-0.1-0.1c-0.2,0.8-0.4,1.6-0.7,2.3c-0.4,0.7-1,1.3-1.4,1.9c1.3,2.4,1.4,2.5,0.1,4.4
		c-0.8,1.2-0.8,2.8-2,3.8c-0.6,0.5,0.4,2.2,1.3,2c1.5-0.3,2.7-0.1,3.8,0.8v2.6c-0.4,0-0.8,0.1-1.2,0c-1.3-0.5-2.6-1-3.6,0.6
		c0.2,0.4,0.4,0.9,0.7,1.5c-1.3,0.6-2.6,1.1-3.9,1.6c0.2,1.6,1.2,2.4,2.1,3.2l-0.1-0.1c0.1,0.9,0.1,1.8,0.2,2.7
		c0.1,0.7-0.4,0.6-0.7,0.8c-2,1.5-2.3,3.6-2.4,5.8c-0.1,1,1.6,2,2.4,1.4c2-1.6,4.5-1.8,6.8-2.5c1.5-0.9,1.4-3.4,3.9-3.4
		c0.1,2.4-0.7,4.4-3,5.4c0.8,2.1,4,0.6,4.4,3.1c-1.7,0.6-3.3,0.7-4.9-0.4c-0.6-0.4-1.6-0.6-2,0.6c0.6,0.7,1.1,1.4,1.8,2.1
		c0.4,0.4,0.8,1,1.3,1c3.1-0.1,4.9,2.7,7.7,3.4c0.7,0.2,0.9,1.4,0.4,1.6c-1.3,0.5-1.8,1.4-2.1,2.7c-0.2,0.9-0.9,1.6-1.4,2.6
		c3.3,1.9,6.4,3.3,10,3.4c0.6,0,1.5,0,1.9-0.4c1.9-1.4,3.9-2.3,6-3.2c0.7-0.3,1.4-0.9,1.9-1.4c1.8-1.8,3.4-1.9,5.1-0.1
		c0.8,0.9,1.7,1.7,2.7,2.8c-0.1,0.8-0.3,1.8-0.5,3.2c0.6,0.3,1.2,0.7,2,1.1c4.3-5,8.6-9.9,12.9-14.9c1.2,1.2,2.2,2.2,3.3,3.4
		c1.4-1.1,2.7-2.1,3.8-3c0.5,0.1,0.8,0.1,1,0.2c0.9,1,1.8,2,2.7,2.9c1,0.9,2.5,0,3.8,1c0.8,0.6,2.3,0.3,3.7,0.4
		c0.3,1.3,0,2.6-0.1,3.9c-0.1,1.2-0.6,2.4-0.6,3.6c-0.1,2.3-0.4,4.3-2.4,5.8c-1.7,4.4-5.4,7.4-8.1,11.1c-0.5,0.7-0.9,1.2-0.9,2.1
		c0.1,2.3-0.4,4.3-2.1,6c-0.2,0.2-0.3,0.5-0.4,0.7c-1.1,2-0.6,3.4,1.5,4.3c0.6,0.2,1.3,0.3,2,0.5l-0.1-0.1c-0.2,0.4-0.6,0.8-0.5,1.1
		c0.7,1.7,0.5,3.4-0.3,4.9c1.4,1.9,2.7,3.6,4,5.4c1.8,0,3.7-0.2,5.7,1.3c0.1,0.3,0,1.2-0.8,1.9c-0.8,0.7-1.5,1.6-2.3,2.3
		c-1.1,1-1.5,2.2-1.6,3.8c0.7,0.5,1.4,1,2.2,1.6c-0.6,1.1-0.9,1.8-1.3,2.5c0.3,1.2,2.5,3.1,3.5,3c0.4,0,0.9-0.1,1.1-0.4
		c1.4-2,3.3-1.5,5.1-1c1.4,0.4,2.8,0.9,4.2,1.3c0.9-0.6,1.7-1,2.4-1.5c1.6,0.4,2.3,1.5,2.9,2.7c0,1.3-1.2,1.4-1.8,2
		c-1.7,1.6-3.2,3.3-5.7,3.6c-0.6,0.1-1.1,0.7-1.6,1.2c-1.1,1-2.3,1.9-3.3,3c-0.8,0.9-1.4,1.9-1.8,2.5c0,1.7,2.7,1.1,1.3,2.9
		c0.5,0.2,0.8,0.3,1,0.3c1.8-0.2,3.3-0.8,4.8-1.8c2.7-1.9,5.5-3.7,9.1-4.2c3.6-0.5,6.8-2.7,9.8-4.8c1.1-0.8,2.3-1.2,3.6-1.5
		c1.5-0.3,3.2-0.3,4.5-1.3c0.9-0.7,2-0.7,3.1-0.4l-0.1-0.1c-0.1,0.4-0.4,1-0.3,1.1c1.7,1.9,2.6,4.5,5.1,6c1.6,0,3.4-0.1,4.2-2
		c0.9-1.9,0.4-3-1.9-5.2c1-0.7,1.9-0.9,2.9-0.2c0.7,0.5,1.3,1,2,1.5c0.6,0.5,1.3,1,1.8,1.5c0,1.4,0,2.5,0,3.5
		c-0.1,1.3,0.3,2.4,0.9,3.5c0.4,0.6,0.8,1.1,1.1,1.7c1.1,2.5,2,4.8,1.6,7.7c-0.5,4.1-1.1,8-2.4,11.9c-1.2,3.9-1.7,8-2.7,11.9
		c-0.4,1.8-1.2,3.6-1.9,5.3c-1.5,3.6-3.1,7.2-4.6,10.9c-1.4,3.5-3.3,6.8-4.9,10.2c-2.3,4.7-5.9,8.4-8.7,12.7c-1.9,2.9-3.9,5.9-5.6,9
		c-2,3.6-4.6,6.8-7.4,9.7c-2.7,2.8-4.6,6-6.5,9.3c-0.2,0.3-0.3,0.7-0.4,1.1c-0.7,3.4-0.7,3.4-2.5,5.8c0.2,0.5,0.3,1,0.6,1.5
		c0.6,1.2,0.4,2.4-0.4,3.4c-1.1,1.4-2.1,2.8-2.7,4.5c-0.4,1.1-0.7,1.9-0.1,3.1c0.5,1,0.2,2.1-0.5,3.1c-1,1.3-2,2.6-3.1,3.7
		c-2.5,2.4-5.1,4.9-8.5,6.2c-0.4,0.2-0.7,0.5-1.1,0.6c-2.6,0.3-4.3,2.1-6.1,3.7c-1.9,1.6-3.9,3-5.8,4.5c-2.7,2.2-5.7,4.2-7.9,7
		c-2.8,1-4.2,3.7-6.5,5.4c-2.2,1.6-3.9,3.6-5.8,5.6c-3,3-5.8,6.1-8.8,9c-2.6,2.5-5.5,4.8-7.6,7.8c-0.8,1.2-2.5,1.4-3,3.2
		c-0.4,1.3-1.7,2.4-2.7,3.5c-1,1.1-2,2.2-3,3.3c-0.6,0.6-1.1,1.2-1.7,1.7c-2.9,2.1-4.7,5.2-7.4,7.5c-0.1,0.1-0.2,0.2-0.3,0.3
		c-3.9,6.6-10.4,10.5-15.8,15.6c-3.5,3.3-7.3,6.1-10.9,9.1c-0.8,1.8-3,1.9-4.1,3.7c-0.9,1.5-2.9,2.4-4.3,3.6
		c-1.5,1.2-2.8,2.6-4.3,3.7c-1.4,1-2.4,2.2-3.2,3.7c-1.6,2.9-3.9,5.2-6.5,7.3c-3.3,2.8-6.5,5.8-10,8.2c0.2,2.4-0.6,4.3-2.2,5.6
		c-3.7,3-7,6.4-10.7,9.4c-0.3,0.3-0.7,0.5-1,0.7l-0.1-0.2l0.2,0.1c-3.7,2.9-7.5,5.7-11.2,8.6c-3,2.3-6,4.5-9,6.8
		c-1.2-0.1-1.1,1.4-2,1.7l0,0.1c-0.3-0.5-0.6-0.7-1,0l0.1-0.1c0,0.3,0,0.7,0,1l-0.1-0.1c-4.3,3.4-8.5,6.7-12.7,10.1
		c-5.2,4.2-10,8.8-15.8,12.2c-1.4,0.8-2.3,2.2-3.5,3.3c-1,0.9-2.1,1.7-3.2,2.5c-1.5,1-3.1,1.7-4.5,2.8c-3.7,3-7.7,5.6-11.6,8.3
		c-3.7,2.5-7.2,5.3-10.9,7.8c-2.5,1.7-5,3.3-7.6,4.8c-1.3,0.7-2.8,1-4.2,1.6c-0.7,0.3-1.7,0.9-1.8,1.5c-0.4,1.7-1.9,1.8-3,2.5
		c-2.2,1.3-2.6,1-3.5-2c0.8-0.9,1.7-2,2.6-2.9c1.4-1.6,3-2.6,5.4-2.3c0.7,0.1,1.7-0.1,2.3-0.5c2.7-2.1,5.2-4.3,7.8-6.5
		c0.1-0.1,0.2-0.2,0.3-0.4c-0.1-0.9-0.2-2-0.3-3.1c-0.3,0-0.8-0.2-1.1,0c-4.5,2.3-8.9,4.6-13.4,6.9c-3,1.6-6.2,2.7-9.1,4.2
		c-2.3,1.2-4.5,2.5-6.9,3.6c-0.9,0.5-2,0.7-3,1c-0.1-0.5-0.1-0.8-0.2-1c-0.1-0.5-0.1-1.2-0.5-1.5c-0.5-0.4-1.3-0.6-1.9-0.6
		c-0.6,0-1.2,0.5-1.8,0.8c-2.7,1.3-5.5,2.4-8.8,1.4c-0.3,0.8-0.5,1.6-0.8,2.5c-4.2,1.9-8.5,3.8-12.8,5.7c-0.8,0.4-1.9,0.5-2.8,0.4
		c-1-0.1-2-0.7-3.1-0.8c-0.9,0-1.8,0.4-3,0.8c0.4-0.9,0.5-1.4,0.9-1.8c0.8-0.9,1-1.9,0.5-3c-0.4-0.8-0.6-1.7,0-2.3
		c1.5-1.5,1.2-3.2,0.7-4.9c-0.1-0.5-0.3-1-0.4-1.6c0.1,0,0.2,0,0.3,0c-0.1,0-0.2,0.1-0.3,0.1c-1.1-1.4-3-0.9-4.5-1.6
		c-0.5-0.2-1.3,0.2-1.9,0.4c-1.5,0.7-2.9,1.5-4.4,2.1c-0.7,0.3-1.6,0.4-2.3,0.4c-1.1,0-1.2-0.2-2.1-2.2c1.6-1.6,3.1-3.4,1.9-6
		c-1.1-2.2-2.2-4.5-6.2-4c1.5-1.3,2.5-2,3.3-2.9c1.3-1.5,0.5-3.4-1.5-3.5c-2-0.1-4.1-0.1-6,0.9c-1.5,0.9-2.9,2-4.7,3.2
		c-0.4-0.1-1.3-0.2-2.2-0.3c-0.1-0.3-0.4-0.6-0.3-0.8c0.4-2.1,0.8-4.2,1.2-6.4c-2.4-0.8-3.7-2.5-4.2-4.7c-0.2-0.6-0.1-1.5,0.3-1.9
		c1.4-1.3,1.2-2.9,1.2-4.5c-0.7-0.7-1.3-1.3-1.9-2c0.1,0,0.2-0.1,0.2-0.1c-0.1,0.1-0.2,0.1-0.3,0.1c-5.1,1.3-10.1,3-14.8,5.4
		c-1.4,0.7-2.9,1.5-4.3,2.3c-0.6-0.5-0.5-1,0-1.3c0.9-0.6,1.9-1.1,2.8-1.6c1.5-1,2.8-2.1,3-4.3c-0.5-0.7-1.2-1.6-1.8-2.5
		c0.2-0.7,0.3-1.7,0.8-2.2c1.2-1.1,1.2-2.3,0.7-3.7c-0.2-0.5,0-1.1,0-1.6c1.1-0.9,2.2-1.6,3.3-2.5c0.9-0.8,1.5-1.8,1.5-3.2
		c0-1.3-0.6-2-1.6-2.9c-1.6,0.6-3.3,1.2-4.1,2.9c-0.8,1.9-2.2,2.8-4,2.9c-2.4,0.1-3.6,1.5-4.2,3.7c-1,0.3-1.9,0.7-2.8,1
		c-1.1,0.3-1.9,0.9-2.8,1.6c-1.2,1-2.6,1.9-4,2.6c-4.2,2.1-8.4,4.3-12.5,6.8c-1,0.6-1.9,1.5-3,2.1c-1,0.5-1.8,1.6-3.3,1.5
		c-0.4-0.1-1.1,0.3-1.3,0.7c-2,2.8-5.2,3.9-7.9,5.6c-4.1,2.7-8.2,5.2-12.3,7.9c-1.2,0.8-2.2,2-3.3,3c-0.8,0.7-1.5,1.5-2.4,2.2
		c-0.7,0.5-1.3,0.8-1.1,1.9c0.1,0.3-0.8,1.1-1.4,1.3c-2.1,0.7-4.1,1.5-6.2,1.8c-2.2,0.4-4.2,1-6.1,2.2c-1.3,0.8-2.6,2.1-4.4,1.6
		l0,0.1c0.1-0.7,0.2-1.3,0.3-2.2c-3.3-1.1-6.4-2.3-10-0.2c-0.8-0.6-1.6-1.2-2.5-1.8c-1.2-0.2-2.1,0.4-3,1.1
		c-0.7,0.6-1.6,0.7-2.3,0.2c-1-0.8-2-0.7-3.1-0.2c-1.5,0.7-3.1,0.9-4.7,0.8c-1-1.1-1.2-2.3-0.8-3.5c0.9-2.2,0.4-4.3-0.4-6.3
		c-0.6-1.4-0.5-2.5,0-3.9c1-2.7,0.5-3.5-1.6-5.3c-0.8-0.7-1.7-0.9-2.6-0.8c-1.1,0.2-2.1,0.6-3.1,1c-0.6,0.2-1.2,0.7-1.8,1
		c-3.3,1.5-3.9,0.6-5.2-1.3c-0.3-0.4-0.6-0.9-1-1.3c-3.3-1-6.4-0.9-9.4,0.9c-0.6,0.3-1.3,0.6-1.9,0.6c-2.2-0.1-4.3,0.5-6.3,1.3
		c-2.8,1.1-5.3,0.9-7.6-1.1c-0.9-0.8-2-1.3-3.3-1.4c-1.4-0.1-1.7-1-1-2.3c0.9-1.7,1.8-3.4,2.7-5c0.7-1.3,0.9-2.4,0.2-3.8
		c-0.5-1-0.3-2.4-0.5-3.6c-0.3-2.4-1.6-3.7-4-3.7c-2.2,0-4.4,0.3-6.5,0.4c-0.9,0-1.9,0.1-2.8-0.1c-2-0.4-3.9-0.9-6-0.4
		c-0.8,0.2-2-0.1-2.7-0.6c-2.2-1.6-4.8-2.5-6.7-4.6c-1.1-1.2-2.4-2.1-4.2-2.2c-0.6,0-1.2-0.6-1.8-0.9c-1.2-2.7-0.4-5.1,0.9-7.4
		c0.7-1.2,1.3-2.3,1.9-3.5c0.6-1.2,1.7-2.1,2.7-3c1.3-1.2,2-2.6,2.4-4.4c-3.7-0.1-7.4-1.2-10.4,1.8c-0.9-0.2-1.7-0.4-2.5-0.6
		c0-1,0-1.8,0-2.5c0.1-1.7,0.6-3.4-0.1-5.2c-0.7-1.6-0.1-3.1,0.9-4.6c3-4.7,6.6-8.9,9.4-13.8c0.7-1.2,2.1-2,3.2-3
		c1.2-1,1-2.2-0.5-2.7c-0.9-0.3-1.8-0.4-2.6-0.6c-3.5,2.4-4.6,7-8.7,8.8c-0.8-1.1-1.5-2.2-2.3-3.4c-0.6,0.4-1.1,0.5-1.5,0.9
		c-2.2,2.2-4.4,4.5-6.6,6.7c-1.1,1.1-1.6,2.4-1.2,4.1c0.2,0.9,0.3,1.9,0.2,2.8c-0.1,0.8,0,1.3,0.5,1.9c0.9,1.2,0.2,2.1-0.5,2.9
		c-0.6,0.7-1.5,0.8-2.2,0.3c-1.2-0.9-2.2-1.9-3.4-3c0.6-2.2-0.6-4.4,0.3-6.7c0.3-0.6,0-1.7-0.4-2.3c-1.5-2-1.2-4.1-0.4-6.2
		c0-0.1,0-0.3,0-0.7c-1.6-1.1-1.4-3.1-2.2-4.9c-0.5-0.1-1-0.3-1.5-0.5c-3.6-1-3.6-1-6.5,1.2c-0.7-0.9,0-1.6,0.5-2.1
		c1.5-1.6,3-3.1,4.5-4.7c2.9-3,6.2-5.7,9.2-8.6c3.5-3.3,6.9-6.6,10.3-9.9c0.3-0.3,0.5-1.1,0.4-1.4c-0.2-0.4-0.9-0.6-1.3-0.6
		c-1.2,0.1-2.4,0.3-3.6,0.5c-0.8,0.1-1.6,0.3-2.4,0.4c-0.3-0.4-0.6-0.7-0.8-1c-0.5-0.6-0.9-1.5-1.6-1.7c-1-0.4-2.2,0-3,0.8
		c-1.1,1-2,2.2-3,3.3c-0.8,0.9-1.5,1.9-2.4,2.7c-1.7,1.5-3.8,2.8-5.3,4.5c-1.5,1.7-2.4,3.9-3.7,5.8c-0.7,1-1.3,2.1-2.7,2.4
		c-1.6-0.3-2.3-1.5-2.4-2.9c-0.1-1.1,0.6-1.9,1.6-2.6c1.3-1,2.4-2.2,3.5-3.4c1.6-1.9,3-3.8,5.3-5c0.7-0.3,1.1-1.2,1.7-1.7
		c0.6-0.6,1.1-1.3,1.8-1.6c2.2-0.7,3.1-2.6,4.3-4.2c0.9-1.3,0.9-2.9,0.2-4.3c-0.7-1.3-1.7-2.4-2.7-3.6c-1-1.2-2.5-1.4-4-1.5
		c-1.1-1.8-1.4-3.4-0.6-5.2c0.9-2,1.6-4,4-4.8c1.1-0.4,2.1-1.3,3-2c2.1-1.5,4.3-2.9,6.9-3.3c0.7-0.1,1.3-0.3,1.9-0.6
		c4.2-2.2,8.3-4.6,12.3-7.2c2.2-1.4,4.3-2.9,6.5-4.1c5.3-2.8,10-6.6,15-9.8c2.6-1.7,4.9-3.8,6.7-6.4c0.4-0.5,0.5-1.2,0.9-2.1
		c-3.2-0.5-6.1-0.7-8.5,1.7c-1.5,1.5-3,2.8-5.4,2.2l0.1,0.1c0.9-0.8,1.7-1.6,2.6-2.4c1.8-1.5,3.6-2.9,5.3-4.4c2.7-2.5,5.2-5.2,8-7.5
		c2.3-1.9,4.1-4.3,5.7-6.8c1.2-1.8,2.5-3.5,4.1-5c1.1-1,1.1-1,1.7-3.5c-0.7-0.8-1.5-0.5-2.2-0.1c-4.3,2.4-8.1,5.4-11.7,8.7
		c-1.7,1.6-3.7,2.8-4.7,5c-0.3,0.6-1.2,1-1.9,1.5c-2.2,1.3-4.3,2.8-6.2,4.6c-2.7,2.5-5.6,4.7-9,6.2c-0.7-0.5-0.1-1,0.2-1.3
		c2.4-2.4,4.8-4.8,7.3-7.2c0.7-0.7,1.5-1.2,2.2-1.8c2.7-2,5.5-4,6.6-7.5c0.3-0.8,1.1-1.5,1.5-2.3c0.3-0.5,0.2-1.2,0.3-1.8
		c-0.8-0.9-1.6-0.4-2.2,0.1c-1.7,1.4-3.4,2.8-4.8,4.3c-1.4,1.5-3,2.7-4.8,3.7c-1.3,0.8-2.4,1.8-3.7,2.6c-0.5,0.3-1.2,0.4-2.2,0.7
		c0.7-2.1,2.1-2.9,3-4.1c1-1.3,2.2-2.4,2.2-4c-0.6-0.8-1.1-0.4-1.5-0.1c-0.9,0.6-1.7,1.3-2.6,2c-1.8,1.5-3.5,3-5.7,4
		c-1.1,0.5-2,1.4-2.9,2.2c-2.1,1.8-4,3.7-6.2,5.3c-3.9,3-7.4,6.4-11.1,9.6c-0.8,0.7-1.5,1.6-2.7,1.7c-0.5,0-1.2,0-1.5-0.3
		c-0.3-0.5-0.5-1.3-0.4-1.9c0.1-0.6,0.6-1.3,1.1-1.7c3.7-2.9,6.1-6.9,9.3-10.2c1.2-1.3,2.4-2.5,3.2-4.2c0.6-1.2,1.6-2.2,2.6-3.1
		c1.4-1.5,2.9-2.9,4.5-4.2c1.6-1.3,2.2-3,2.5-5c-0.8-0.6-1.6-1.1-2.2-1.5c-0.5,0.2-0.8,0.2-1,0.3c-5.3,4.5-10.6,8.9-16,13.4
		c-0.5,0.4-1.1,0.9-1.6,1.2c-1.7,1.1-2.2,0.9-4.3-1.2c3.3-3.7,6.8-7.3,8-12.6c-0.5,0-1-0.1-1.4,0c-3.4,1-5.8,3.4-8.6,5.4
		c-1.6,1.1-3.1,2.1-4.7,3.2l0.1,0.1c0.3-2,2.1-2.7,3.3-3.9c2.6-2.8,5.2-5.4,7-8.9c0.6-1.2,1.5-2.3,2.5-3.2c2-1.8,3.4-3.8,3.1-6.7
		c-0.1-1.2,0.2-2.4,0.3-3.5c-1.7-2.3-4-2.3-6.2-1.4c-2.3,0.9-4.5,1.7-7,2c-1.2,0.1-2.4,0.7-3.4,1.2c-2,1.1-3.9,0.9-5.7-0.5
		c-1.1-0.8-2.1-1.7-3.1-2.6c-1.1-1-2.2-2-3.4-3.2c-0.9,0.4-1.8,0.7-2.6,1.2c-1.5,1.1-2.9,1.3-4.6,0.5l0,0.1c0.3-1,0.6-2.1,1-3.3
		c-1.3-1.6-2.4-3.4-2.2-5.7c0.1-1-0.8-2-1.2-3c-0.6-1.7-0.8-3.4,0.6-4.9c0.8-0.9,1.2-2.1,1.7-3.2c0.5-1.4-0.5-2.9-2-2.8
		c-1,0.1-2.1,0.4-3.1,0.9c-1.6,0.8-3.1,1.7-4.6,2.6c-1.6,1.1-3.4,1.5-5.4,1.6c-1.8,0.1-3.3,0.1-4.3-1.6c-0.8-1.3-2.3-0.7-3.4-1.5
		c0.4-1.8,1.2-3.4,2.5-4.8c1.5-1.6,2.7-3.4,2.6-6c-1.1-0.7-2.2-1.5-3.4-2.3c-2.6-0.4-3.7,2.1-6.3,3.1c1-1.4,1.7-2.4,2.4-3.5
		c0-0.1,0.1-0.4,0.1-0.6c-0.6-3.1-1.1-3.5-3.9-3.4c-0.5,0-1.1,0-1.6,0.1c-0.8,0.1-1.6,0.3-2.5,0.4c-0.9-0.9-1.3-1.9-1-3.2
		c0.2-1,0.5-2.2,0.2-3.2c-0.5-1.5-0.4-2.5,0.8-3.6c0.4-0.4,0.3-1.3,0.5-1.9c0.5-1.7,1.1-3,2.8-4c2.2-1.3,3.9-3.3,5.9-4.9
		c0.1,0.1,0.2,0.1,0.3,0.2c-0.1,0-0.2-0.1-0.3-0.1c1.9-1,3.8-1.9,5.3-3.6c1.5-1.6,3.6-2.7,5.3-4.2c1.2-1,2.4-2.1,2.7-3.9
		c0.3-1.6,2.1-2.5,3.5-3.2c0.8-0.4,1.6-0.9,2.3-1.4c1.1-0.9,2.1-1.7,3.6-1.7c0.4,0,0.8-0.2,1.1-0.4c3.2-1.9,6.5-3.8,9.7-5.8
		c0.8-0.5,1.5-1.1,2.5-1.2c0.4,0,0.8-0.2,1.1-0.5c4.9-4,10.8-6.7,15.6-10.8c0.6-0.5,1.2-1.2,1.9-1.5c1.7-0.7,2.9-2,3.8-3.5
		c1-1.7,2.5-2.7,4.4-3.3c1.5-0.4,2.8-1.3,4-2.6c2-2,4.4-3.6,6.7-5.3c1.5-1.1,2.5-2.4,2.7-4.2c-0.7-0.8-1.4-0.5-1.9-0.2
		c-2.4,1.3-4.8,2.6-7,4.1c-1.9,1.2-4,2.1-5.8,3.8c-0.8,0.8-2.3,1.3-3.3,1.2c-1.7-0.2-2.9,0.5-4.1,1.3c-0.9,0.6-1.8,1.2-2.8,1.7
		c-0.6,0.3-1.3,0.4-1.9,0.2c-1.3-0.3-2.2,0.3-2.6,1.4c-0.7,2.3-2.8,2.8-4.5,3.9c-2.9-1.1-4.6,1.9-7.1,2c-0.4,0-0.8,0.3-1.1,0.6
		c-4.5,4.2-9.9,7.2-14.7,10.9c-0.5,0.4-1.2,0.8-1.8,0.8c-4.7,0.1-8,2.9-11.4,5.7c-0.4,0.3-0.8,0.8-1.3,0.9c-2.3,0.4-4,1.7-5.7,3
		c-2.7,1.9-5.3,3.8-8.1,5.5c-1.9,1.2-3.6,2.4-4.7,4.4c-0.2,0.4-0.9,0.6-1.6,1c-0.5-0.7-0.9-1.3-1.3-2c-1.2-1.5-2.2-3-4.4-3.3
		c-1.6-0.2-1.9-1.4-0.9-2.6c3.5-4.6,4.1-5.2,9.3-8.8c3.1-2.2,6.2-4.3,9.4-6.3c1.8-1.1,3.8-2.1,5.6-3.3c0.5-0.4,1.2-0.5,1.9-0.7
		c0.8-0.3,1.7-0.4,2.2-0.9c2-2.2,4.8-3,7.3-4.3c1-0.5,1.9-1.1,2.7-1.7c2-1.6,4.2-3,6.6-4c1.5-0.6,2.8-1.6,4.2-2.4
		c0.5-0.3,0.8-0.8,1.3-0.9c4.2-0.7,6.8-4.2,10.5-5.9c1.8-0.8,3.3-2.3,5-3.5c3.1-2.1,6.2-4.5,9.5-6.2c4.3-2.3,8.2-5.3,12.3-7.8
		c0.8-0.5,1.5-1.1,2.3-1.7c3.3-2.8,6.7-5.5,10.6-7.5c2-1,3.2-2.9,3.7-5.1c0.1-0.6-0.1-1.4-0.5-1.9c-0.6-0.7-1.4-1.2-2-1.7
		c-7.9,4.4-15.6,8.7-23.3,13.1c-0.9,0.5-1.9,1-2.8,1.7c-2.7,1.9-5.5,3.5-8.4,5.1c-2.9,1.5-5.5,3.5-8.2,5.3c-0.8,0.5-1.6,1-2.5,1.4
		c-5.7,2.8-11.4,5.7-16.7,9.3c-2.2,1.5-4.7,2.7-7.1,4.1c-2.8,1.7-5.5,3.6-8.2,5.4c-2.8,1.9-5.6,3.8-8.4,5.7
		c-1.7,1.2-3.3,2.4-4.9,3.6c-2.3-2.7-3.1-3.2-5.8-3.1c-0.9,0-2,0.2-2.7,0.7c-2.5,2.1-5.7,3.1-8.4,5c-1.5,1-2.7,2.2-3.5,3.9
		c-0.6,1.3-1.7,2.4-2.5,3.6c-3.1-1.5-3.6-3.6-1.6-5.8c0.6-0.6,1.3-1.1,1.7-1.8c0.5-0.9,1.2-1.4,2.1-1.7c1.5-0.3,2.7-1.2,3.8-2.3
		c1.1-1,2-2.1,3.6-2.5c1-0.3,1.8-1.6,2.6-2.5c0.8-0.9,1.5-1.9,2.9-2c0.5,0,1.1-0.4,1.3-0.8c1.3-1.7,3.2-2.5,5-3.4
		c2.9-1.4,5.6-3.3,7.9-5.5c1.4-1.4,2.5-3.2,3.4-5c0.3-0.6,0.5-1.1,1.1-1.5c2.4-1.6,5.2-2.2,8-2.7c1.1-0.2,2.1-0.3,3.1-0.7
		c2-0.8,4.2-1.5,5.9-2.8c2.6-2.1,5.5-3.3,8.3-4.9c1.8-1,3.6-1.9,5.1-3.2c1.6-1.4,3.5-2.1,5.3-3c1.9-0.9,3.5-2.1,4.6-3.9
		c0.4-0.6,0.5-1.5,0.7-2.4c-3.3-0.7-5.6,1.1-8.1,2.4c-0.8,0.5-1.6,1.1-2.6,0.9c0-0.1,0-0.2-0.1-0.2c0,0.1,0.1,0.2,0.1,0.3
		c-0.4,0.7-1,0.9-1.8,0.7l0.1,0.1c-0.1-1.1-0.1-2.1-0.1-2.9c1.9-1.3,3.6-2.3,5.1-3.6c1.4-1.2,3.5-0.7,4.6-2.2c2.4-0.8,3.8-3,5.9-4.1
		c2.1-1.1,4.6-1.6,6.7-2.7c1.9-1,3.6-2.4,5.3-3.7c0.7-0.5,1.3-1.1,2-1.3c2.4-0.6,3.6-2.3,4.2-4.7c-0.4-0.7-0.9-1.5-1.4-2.3
		c0.6-1.5,1.8-2.5,3.2-3.4c0.7-0.4,1.3-0.9,2-1.4c1.2-0.9,1.3-2,0.8-3.2c-4.1-0.9-4.3-1.3-6.8,2.9C98.7,236.1,97.5,236.6,96.2,237.1
		L96.2,237.1z M134.7,517.1l0.2-0.1l-0.1,0.2c-0.1,0-0.2,0.1-0.2,0.1C134.6,517.2,134.7,517.1,134.7,517.1 M146.2,212.5
		c0.1-0.1,0.1-0.2,0.2-0.3C146.4,212.3,146.3,212.4,146.2,212.5c-0.1,0.1-0.1,0.1-0.2,0.1C146.1,212.6,146.2,212.5,146.2,212.5
		 M636.7,274c-0.1,0.2-0.1,0.4-0.2,0.6C636.5,274.4,636.5,274.2,636.7,274l0.6-0.2c-0.1-0.1-0.2-0.3-0.3-0.4
		C636.9,273.6,636.8,273.8,636.7,274 M521.1,70c-0.9,0-1.9-0.1-2.8,0c-0.4,0.1-0.9,0.6-1,1c-0.2,0.7,0.5,0.8,1,0.8
		c1.3,0,2.3-0.4,3-1.6c0.2-0.2,0.3-0.4,0.5-0.6C521.5,69.7,521.3,69.9,521.1,70 M96.2,541.7c0.6-0.4,1.2-0.6,1.6-1.1
		c2.1-2.1,4.1-4.3,6.3-6.4c3-2.9,5.6-6.4,9.5-8.3c1.4-0.7,2.4-2.1,3.3-3.6c0.4-0.8,1.1-1.5,1.8-2.1c3.1-2.7,6.2-5.3,9.2-8
		c0.6-0.5,0.8-1.3,1.4-2.4c-0.9,0-1.5-0.2-1.8,0c-0.7,0.4-1.4,1-1.6,1.7c-0.5,1.1-1.2,1.8-2.2,2.3c-0.9,0.5-1.9,1.1-2.8,1.7
		c-1.8,1.3-3.5,2.6-5.2,3.9c-0.4,2.4-2.5,2.9-4.2,3.9c-0.5,0.3-0.9,0.6-1.3,1c-4.3,4-8.3,8.3-12.1,12.7c-0.7,0.8-1.3,1.7-1.8,2.7
		C96,540.4,96.3,541.1,96.2,541.7c0,0.1-0.1,0.1-0.2,0.2c0,0,0,0.1-0.1,0.2C96,541.9,96.1,541.8,96.2,541.7 M306.6,588.5
		c0,0.1,0,0.1,0.1,0.2L306.6,588.5c1-0.5,2.1-1.2,3.2-1.5c0.9-0.2,1.7-0.5,2.6-1c4.4-2.7,9.1-4.8,13.9-6.6c0.6-0.2,1.2-0.5,1.8-0.9
		c1.3-1,2.5-2,3.8-3.1c1.2-1,1.2-1.3,0.2-3.6c-0.7,0.1-1.6,0.1-2.4,0.2c-0.5,0.1-1.3,0.3-1.4,0.6c-0.8,2-2.8,2.5-4.4,3.3
		c-4.6,2.5-9.4,4.7-14.1,7.1c-1,0.5-1.9,1-2.8,1.6c-0.6,0.4-1.1,0.8-1.5,1.3c-0.5,0.6-0.4,1.3,0.2,1.8
		C305.9,588,306.2,588.2,306.6,588.5 M295.3,140.3l0,0.2l-0.1-0.1c1.5-1.2,3-2.3,4.4-3.5c0.5-0.4,0.9-1.1,1.5-1.3
		c3.4-1.4,5.7-4,8.4-6.4c0.9-0.8,1.8-1.8,2.9-2.2c3.7-1.4,6.2-4.3,9.3-6.5c1.9-1.3,3.4-3.1,5-4.7c0.3-0.3,0.3-1,0.2-1.5
		c-0.2-0.8-1-1-1.6-0.8c-2.1,0.6-4,1.5-5.6,3c-1.5,1.4-3.1,2.6-4.8,3.7c-1.7,1.1-2.7,3-4.8,3.6c-0.8,0.2-1.7,1-2.1,1.8
		c-1,1.6-2.5,2.4-4.2,3c-1,0.4-2.1,0.8-2.9,1.5c-2.1,1.7-4,3.6-6,5.4c-0.6,0.5-1.3,1-2,1.4c-3.3,1.9-6.6,3.7-9.9,5.6
		c-2.4,1.4-4.7,2.7-7,4.2c-1.8,1.2-3.9,2.3-5.2,3.9c-1.5,1.9-3.5,3-5.3,4.4c-3,2.4-6.1,4.6-9.2,6.8c-2.1,1.5-4.2,2.9-6.4,4.2
		c-1.1,0.6-2.1,1.2-2.6,2.5c-0.3,0.8-1.2,0.9-1.9,1.3c-3.6,1.8-7.6,3-10.3,6.3c-0.3,0.4-0.8,0.7-1.2,1c-2.9,2-5.8,4-8.7,6
		c-0.7,0.5-1.4,1.2-2,1.9c0.4,0.8,1,1.2,1.7,1c2.8-0.7,5.3-1.9,7.7-3.6c4-2.7,7.9-5.6,12.3-7.6c3.3-1.5,6.4-3.8,8.7-6.6
		c2-2.4,4.4-3.5,7.2-4.1c1.1-0.2,2.5-0.7,3.2-1.5c0.9-0.9,1.9-1.4,3-2c2.3-1.2,4.8-2.1,6.7-3.8c2-1.7,3.8-3.6,5.9-5.3
		c2.5-2.1,5.3-3.8,7.8-5.8C290.1,143.8,292.7,142.2,295.3,140.3 M106.6,238.5c0.4,1.6,1.4,2,2.3,1.8c3.2-0.6,6.5-1.4,8.7-4
		c1.5-1.6,3.2-2.7,5.2-2.9c2.7-0.3,4.3-2,6.1-3.6c0.4-0.3,0.6-0.9,0.7-1.4c0.1-0.3,0.1-1-0.1-1.1c-0.4-0.3-1.1-0.5-1.4-0.3
		c-3.5,1.7-7,3.5-10.5,5.3c-0.6,0.3-1.2,0.6-1.8,0.8C112.3,234.2,109.5,236.2,106.6,238.5 M129.7,251.3c1.9,1.6,1.9,1.6,2.8,1.7
		c4.4,0.2,8.1-1.9,11.7-3.9c0.8-0.4,1.3-1.3,1.8-2.1c0.4-0.6,0.3-1.3-0.3-1.8c-0.4-0.3-0.9-0.6-1.5-1.1c-2.3,0.9-4.8,1.6-7.1,2.7
		C134.7,248,132.4,249.6,129.7,251.3 M305.1,576.3c1.9,2.8,1.9,2.7,4.5,1.9c1.8-0.5,3.5-1.3,5.2-2.3c1.9-1.2,3.9-2.4,5.9-3.6
		c1.1-0.7,1.6-1.7,1.2-2.6c-0.4-0.8-1.7-1.2-2.9-0.8c-0.4,0.1-0.7,0.4-1,0.6c-1.3,0.7-2.7,1.4-3.9,2.2c-1.8,1.2-3.7,2.3-6,1.7
		C307,574.5,306,575.4,305.1,576.3 M135.2,223.7c0.7,0.4,1,0.8,1.5,0.9c2.2,0.5,4.2-0.3,6.1-1.4c0.8-0.5,1.6-1.3,2.4-1.4
		c1.8-0.1,3-1.2,4.4-1.9c0.2-0.1,0.3-0.4,0.5-0.5v-2.6c-0.8,0-1.5-0.2-2.1,0c-2.2,0.9-4.4,2-6.6,3c-1.5,0.7-3,1.3-4.4,2.1
		C136.4,222.3,135.9,222.9,135.2,223.7 M119.4,558.6c1.2,1,2.3,2.1,3.4,3c2.3-0.7,3.2-2.2,3.5-4.2c0.2-1.4-0.2-2.5-1.4-3
		c-1.1-0.4-2.2-1-3.8-0.4C120.6,555.3,120,556.9,119.4,558.6 M140.6,517.2c-2.4,0.9-4.1,1.3-5.4,2.7c-1,1.1-2.2,2.1-3.8,2.2
		c-3,0.1-5,1.8-7,3.7c-0.2,0.2-0.2,0.7-0.3,1.1c0.5,0.1,1,0.3,1.3,0.1c2.1-1,4.1-2,6.2-3.1c1.2-0.6,2.3-1.6,3.5-2
		c1.8-0.5,3.1-1.8,4.6-2.8C140,518.9,140.1,518.4,140.6,517.2 M313,118.5c-2.6-0.4-4.3-0.3-5.8,0.8c-1.1,0.9-2,2.1-1.5,4.1
		c0.8-0.1,1.7,0.1,2.2-0.3C309.6,121.9,311,120.4,313,118.5 M488.3,79.9c-2-0.5-3.4,0.1-4.5,1.2c-0.3,0.3-0.2,1-0.2,1.5
		c0,0.6,0.4,1,1,0.8C486.3,83,487.5,81.9,488.3,79.9 M500.6,82.8c-0.1-0.6-1.3-1.3-1.9-1c-0.7,0.4-1.2,1-1.7,1.6
		c-0.5,0.6,0,1.6,0.8,1.9C499.2,85.7,500.8,84.4,500.6,82.8 M164.7,208c-1.8-0.4-3,0.9-4.5,1.3c-0.8,0.2-1.9,0.5-1.6,1.4
		c0.4,1.2,1.2,0,1.9,0C162.4,210.6,163.6,209.6,164.7,208 M540.6,232.1c-1.2,0.5-2,0.6-2.6,1.1c-0.3,0.2-0.3,0.9-0.2,1.4
		c0,0.2,0.7,0.4,1,0.4C540.2,235,540.2,233.8,540.6,232.1 M681,292.2c0.7,0.6,1.1,1.2,1.6,1.4c0.4,0.1,1.1-0.2,1.3-0.5
		c0.2-0.3,0.1-1-0.1-1.4c-0.1-0.2-0.7-0.5-1-0.4C682.3,291.4,681.8,291.8,681,292.2 M135.3,218.9c-1.3,0.1-2.7,0.1-3.4,1.7
		C134,220.2,134,220.2,135.3,218.9 M156.9,214.6c-1.5-1.1-2.2-0.7-2.8,0.2c-0.2,0.3-0.2,0.8,0,1c0.2,0.2,0.8,0.5,1,0.4
		C155.6,215.8,156.1,215.3,156.9,214.6 M222.9,169.1c-0.2-0.3-0.2-0.6-0.4-0.7c-0.2,0-0.5,0.1-0.7,0.2c-0.1,0.1,0,0.4,0.1,0.6
		C222.3,169.2,222.6,169.1,222.9,169.1 M316.5,594.7c-0.2,0.3-0.4,0.5-0.7,0.8c0.1,0.1,0.3,0.2,0.3,0.2c0.3-0.1,0.6-0.3,0.9-0.5
		C316.9,595.1,316.8,595,316.5,594.7 M538.2,51.5c-0.3,0.2-0.6,0.3-0.6,0.4c0,0.2,0.1,0.5,0.2,0.7c0.1,0.1,0.4-0.1,0.6-0.1
		C538.4,52.1,538.3,51.8,538.2,51.5 M495.6,84.8c-0.2,0.1-0.4,0.2-0.5,0.4c-0.1,0.1,0,0.4,0.1,0.4c0.2,0,0.4,0,0.6,0
		C495.7,85.3,495.7,85,495.6,84.8 M139.3,216.6l-0.3,0l0.1,0.3L139.3,216.6z M129.6,426.6c-0.2-0.1-0.5-0.2-0.7-0.2
		c-0.1,0-0.2,0.2-0.3,0.2c0.2,0.1,0.3,0.4,0.5,0.4C129.2,427,129.4,426.8,129.6,426.6 M580.5,175.6l0.1,0.3l0.1-0.3L580.5,175.6z"/>
	<path class="pattern-st0" d="M30.2,273.9c-2.3,1.9-4.4,3.3-6.9,3.8c-1,0.2-1.9,1-2.9,1.5c-3.1,1.7-6.1,3.5-9.2,5.2c-1,0.5-2,1.5-3.3,0.9
		c0-0.3-0.2-0.7,0-0.7c3.5-2.8,7-5.6,10.7-8.6c1.2,0.2,2.7,0.3,4.3-0.5C25,274.4,27.4,274.2,30.2,273.9"/>
	<path class="pattern-st0" d="M542.3,25.4c0.6-0.1,1-0.1,1.4-0.1c1.7,2,0.5,5,2.6,6.8c-0.9,2.3-1.3,4.7-3.1,6.7c-0.3-0.4-0.8-0.7-0.7-0.9
		C543.4,33.8,542.5,29.8,542.3,25.4"/>
	<path class="pattern-st0" d="M515.3,33.7c2.9,0.2,5,0.4,7.1,0.6c1.1,1,1.1,1.9,0,3.1h-5.4C516.6,36.5,516.1,35.3,515.3,33.7"/>
	<path class="pattern-st0" d="M591,157.7c0.1,2.4-0.3,3.9-1.1,5.7c-1.4-1.1-2.7-2.1-3.9-3C586.9,157.9,589.2,159.1,591,157.7"/>
	<path class="pattern-st0" d="M99.9,561.3c-0.2-0.1-0.2-0.5-0.3-0.7c-0.3-0.8-0.6-1.6,0.4-2.1c0.4-0.2,1.1-0.2,1.5,0.1
		c1,0.7,1.1,1.4,0.6,2.4C101.5,561.9,100.7,561.6,99.9,561.3"/>
	<path class="pattern-st0" d="M506.8,38.9c0.9,0.8,1.6,1.3,2.7,2.2h-4.1C504.9,39.6,506.4,39.8,506.8,38.9"/>
	<path class="pattern-st0" d="M110.3,573.3c0.4,1.1,0.6,1.7,0.8,2.2c-0.6,0.8-1.4,1.3-2,0.5C108.3,575.1,109.2,574.4,110.3,573.3"/>
	<path class="pattern-st0" d="M206.7,176.6c1-1.1,2.2-1.7,3.5-2.3c0.2,0.2,0.5,0.3,0.4,0.3c-0.2,0.7-0.5,1.3-0.8,2.1
		c-1.2-0.1-2.2-0.2-3.2-0.3L206.7,176.6z"/>
	<path class="pattern-st0" d="M327,103.7c-0.5,1.6-1.8,2-3.8,2.9c1.3-1.9,2.6-2.3,3.9-2.8L327,103.7z"/>
	<path class="pattern-st0" d="M215.9,172.4c-0.9,0.3-1.7,0.8-3,0.6c0.9-0.8,1.6-1.4,2.5-2.3C215.6,171.5,215.7,172,215.9,172.4L215.9,172.4z
		"/>
	<path class="pattern-st0" d="M595.5,211c1.2-0.2,1.8,0.3,1.8,1.5c0,0.2-0.3,0.6-0.3,0.6c-0.3-0.1-0.7-0.2-0.8-0.4
		C595.8,212.2,595.7,211.6,595.5,211"/>
	<path class="pattern-st0" d="M206.4,638.9c-0.4,0.6-0.8,1.2-1.6,0.6c-0.1-0.1-0.2-0.6-0.1-0.7C205.3,638.3,205.9,638.3,206.4,638.9"/>
	<path class="pattern-st0" d="M587.3,165.8c0.2,1.1-0.1,2.1-0.9,3c-0.9-1.2,0.5-1.9,0.6-2.9l-0.1,0c0.2,0.2,0.4,0.2,0.6,0L587.3,165.8z"/>
	<path class="pattern-st0" d="M641.7,256c0.1-0.7-0.2-1.6,0.8-2.1C642.6,254.8,642,255.3,641.7,256L641.7,256z"/>
	<path class="pattern-st0" d="M83.4,546.9c0.5,0,0.8,0,1.1,0.1c0.2,0.1,0.2,0.4,0.3,0.7c-0.3,0-0.6,0-0.9-0.1
		C83.8,547.6,83.7,547.3,83.4,546.9"/>
	<path class="pattern-st0" d="M586.7,153.6c0.1,0.1,0.2,0.2,0.2,0.3c0.1,0.3,0.3,0.9,0.1,1c-0.5,0.4-0.9,0.2-1.2-0.4l-0.1,0.1
		c0.3-0.3,0.6-0.6,1-1L586.7,153.6z"/>
	<path class="pattern-st0" d="M65.4,270.8c-0.3-1.1,0.4-1.5,1.3-1.8l-0.1-0.1c0.1,1-0.9,1.2-1.3,1.9L65.4,270.8z"/>
	<path class="pattern-st0" d="M285.5,126.6c-0.1,0.7,0.3,1.7-1,1.6l0.1,0.1C284.8,127.7,285.2,127.1,285.5,126.6L285.5,126.6z"/>
	<path class="pattern-st0" d="M66.7,269c0.6-0.3,1.2-0.5,1.8-0.8l-0.1-0.1c-0.4,0.8-1.1,0.9-1.8,0.8L66.7,269z"/>
	<path class="pattern-st0" d="M65.3,270.8c-0.2,0.1-0.4,0.1-0.6,0.2c0.2-0.1,0.4-0.1,0.7-0.2L65.3,270.8z"/>
	<polygon class="pattern-st0" points="47,277 46.8,276.8 47.1,276.8 	"/>
	<path class="pattern-st0" d="M690.1,286.4c0.1-0.2,0.2-0.4,0.3-0.6c0,0,0.2,0,0.3,0.1C690.4,286,690.2,286.1,690.1,286.4L690.1,286.4z"/>
	<path class="pattern-st0" d="M690,286.3c-0.6,0.2-1.3,0.5-1.9,0.8l0.1,0.1C688.8,286.9,689.4,286.6,690,286.3L690,286.3z"/>
	<path class="pattern-st0" d="M518.4,55.6c-0.1,0-0.2-0.1-0.2-0.1c0.1-0.1,0.2-0.1,0.3-0.2C518.5,55.4,518.4,55.5,518.4,55.6"/>
	<path class="pattern-st0" d="M128.2,452.5c-0.1,0.2-0.2,0.5-0.4,0.5c-0.1,0.1-0.3-0.1-0.5-0.2c0.1-0.1,0.2-0.2,0.3-0.2
		C127.8,452.5,128,452.6,128.2,452.5L128.2,452.5z"/>
	<path class="pattern-st0" d="M365.7,87.4c0.1-0.3,0.3-0.6,0.4-0.9c0.1,0.3,0.2,0.6,0.3,0.9l0.1-0.1L365.7,87.4L365.7,87.4z"/>
	<path class="pattern-st0" d="M101.7,556.8c-0.1,0-0.1,0.1-0.2,0.1c0-0.1,0.1-0.2,0.1-0.4C101.7,556.6,101.7,556.7,101.7,556.8"/>
	<path class="pattern-st0" d="M328,102.8c0.2-0.1,0.4-0.3,0.6-0.4c0,0,0.2,0.1,0.2,0.1c-0.3,0.1-0.6,0.1-0.9,0.2L328,102.8z"/>
	<path class="pattern-st0" d="M294.5,120.9l0.3-0.5C294.7,120.5,294.6,120.7,294.5,120.9L294.5,120.9z"/>
	<path class="pattern-st0" d="M285.5,126.6c-0.2-0.1-0.4-0.2-0.6-0.2c0,0,0,0,0,0c0.1,0.1,0.1,0.3,0.2,0.3
		C285.2,126.7,285.3,126.6,285.5,126.6L285.5,126.6z"/>
	<path class="pattern-st0" d="M290.9,605.1c0.1,0,0.2-0.1,0.3-0.1c0,0.1,0.1,0.3,0.1,0.4c-0.1,0-0.2,0-0.3-0.1
		C291,605.3,291,605.2,290.9,605.1"/>
	<path class="pattern-st0" d="M587.4,165.9c0.2-0.1,0.4-0.2,0.6-0.3c-0.1,0-0.2,0.1-0.4,0.1c-0.1,0-0.2,0.1-0.3,0.1L587.4,165.9z"/>
	<path class="pattern-st0" d="M584.3,172.6c0.2-0.5,0.5-1.1,0.7-1.6l0-0.1c-0.3,0.5-0.5,1.1-0.8,1.6L584.3,172.6z"/>
	<polygon class="pattern-st0" points="546.1,23.3 546.1,23 546.3,23 	"/>
	<polygon class="pattern-st0" points="511.3,38.3 511.2,38.2 511.3,38.4 	"/>
	<polygon class="pattern-st0" points="474.5,74.3 474.6,74.1 474.4,74.2 	"/>
	<polygon class="pattern-st0" points="404.8,75.8 405,75.7 404.7,75.8 	"/>
	<path class="pattern-st0" d="M419.7,76.8c0.3-0.3,0.6-0.7,0.9-1l-0.1-0.1c-0.3,0.3-0.5,0.6-0.8,0.9L419.7,76.8z"/>
	<polygon class="pattern-st0" points="338.6,95.5 338.8,95.3 338.6,95.4 	"/>
	<path class="pattern-st0" d="M338.6,95.4c-0.1,0-0.2,0-0.3,0c0.1,0.1,0.2,0.2,0.3,0.3C338.6,95.7,338.6,95.6,338.6,95.4L338.6,95.4z"/>
	<polygon class="pattern-st0" points="332.1,100.4 332.3,100.2 332.1,100.4 	"/>
	<path class="pattern-st0" d="M332.1,100.4c-0.1,0.1-0.2,0.1-0.3,0.2C331.9,100.5,332,100.4,332.1,100.4L332.1,100.4z"/>
	<path class="pattern-st0" d="M327.9,102.7c-0.3,0.3-0.6,0.7-0.9,1l0.1,0.1c0.3-0.3,0.6-0.7,0.9-1L327.9,102.7z"/>
	<polygon class="pattern-st0" points="321.6,107.8 321.7,107.5 321.5,107.7 	"/>
	<path class="pattern-st0" d="M320.6,108.6c0.3-0.3,0.6-0.5,1-0.8l-0.1-0.1C321.2,108,320.9,108.3,320.6,108.6L320.6,108.6z"/>
	<path class="pattern-st0" d="M320.6,108.6c-0.1,0-0.2,0.1-0.3,0.1L320.6,108.6L320.6,108.6z"/>
	<path class="pattern-st0" d="M318.3,110.2c0.1,0,0.1-0.1,0.2-0.1c-0.1,0-0.2,0-0.3,0L318.3,110.2z"/>
	<path class="pattern-st0" d="M317.3,111.3c0.3-0.4,0.6-0.7,0.9-1.1l-0.1-0.1c-0.3,0.4-0.6,0.7-0.9,1.1L317.3,111.3z"/>
	<polygon class="pattern-st0" points="304.5,113 304.7,113 304.6,113.2 	"/>
	<path class="pattern-st0" d="M302.5,119.2c-0.1,0.2-0.1,0.4-0.2,0.6C301.7,119.2,302.4,119.4,302.5,119.2L302.5,119.2z"/>
	<polygon class="pattern-st0" points="294.5,120.8 294.3,121 294.5,120.9 	"/>
	<polygon class="pattern-st0" points="290.3,124.1 290.5,124 290.3,124.1 	"/>
	<path class="pattern-st0" d="M290.3,124.1c-0.1,0-0.2,0-0.3,0c0.1,0.1,0.2,0.2,0.3,0.3C290.3,124.3,290.3,124.2,290.3,124.1L290.3,124.1z"
		/>
	<path class="pattern-st0" d="M255.1,147c0.3,0,0.7,0,1,0l0.1-0.1H255L255.1,147z"/>
	<polygon class="pattern-st0" points="255,146.9 255,147.1 255.1,147 	"/>
	<path class="pattern-st0" d="M567.9,153.6c-0.3,0.3-0.6,0.6-0.9,0.9l0.1,0.1c0-0.3,0-0.6,0-1l-0.1,0.1L567.9,153.6L567.9,153.6z"/>
	<path class="pattern-st0" d="M586.9,165.9c-0.1-0.1-0.1-0.1-0.2-0.2C586.7,165.8,586.8,165.8,586.9,165.9L586.9,165.9z"/>
	<path class="pattern-st0" d="M217.4,169.9l-0.3,0c0.1,0.1,0.2,0.2,0.3,0.3C217.4,170.2,217.4,170.1,217.4,169.9L217.4,169.9z"/>
	<polygon class="pattern-st0" points="585,171 585.1,170.7 585,170.9 	"/>
	<path class="pattern-st0" d="M181.4,172.6C181.4,172.6,181.4,172.6,181.4,172.6L181.4,172.6z"/>
	<path class="pattern-st0" d="M579.4,197.1c0-0.1,0.1-0.2,0.1-0.3L579.4,197.1L579.4,197.1z"/>
	<path class="pattern-st0" d="M96.2,237.1H96c0.1,0.1,0.2,0.2,0.3,0.3C96.3,237.3,96.2,237.2,96.2,237.1L96.2,237.1z"/>
	<path class="pattern-st0" d="M640.8,257c0.3-0.3,0.6-0.7,1-1l-0.1-0.1L640.8,257L640.8,257z"/>
	<polygon class="pattern-st0" points="62.6,403.9 62.5,404.2 62.6,404 	"/>
	<path class="pattern-st0" d="M82.4,432.7c-0.3,0.3-0.6,0.5-0.9,0.8l0.1,0.1L82.4,432.7L82.4,432.7z"/>
	<path class="pattern-st0" d="M81.5,433.5c-0.3,0.2-0.6,0.5-0.9,0.7l0,0.1c0.3-0.2,0.7-0.5,1-0.7L81.5,433.5z"/>
	<polygon class="pattern-st0" points="80.6,434.2 80.5,434.5 80.6,434.3 	"/>
	<path class="pattern-st0" d="M30,478.7c0.1-0.2,0.2-0.4,0.3-0.6C30.7,478.7,30.2,478.6,30,478.7L30,478.7z"/>
	<path class="pattern-st0" d="M29.1,479.4c0.3-0.2,0.6-0.5,0.8-0.7l-0.1-0.1C29.6,478.9,29.4,479.1,29.1,479.4L29.1,479.4z"/>
	<polygon class="pattern-st0" points="29.1,479.4 29,479.6 29.1,479.4 	"/>
	<path class="pattern-st0" d="M480.3,580.2c-0.3,0.3-0.6,0.6-1,0.9l0.1,0.1c0-0.3,0-0.7,0-1l-0.1,0.1c0.3,0,0.7,0,1,0L480.3,580.2z"/>
	<path class="pattern-st0" d="M215.8,631.6c-0.1,0.1-0.1,0.1-0.2,0.2C215.6,631.7,215.7,631.7,215.8,631.6L215.8,631.6z"/>
	<polygon class="pattern-st0" points="181.4,172.7 181.5,172.4 181.4,172.6 	"/>
	<path class="pattern-st0" d="M418.7,82.9c-0.1-0.1-0.2-0.2-0.2-0.2c0.2-0.2,0.3-0.3,0.5-0.5c0.1,0.1,0.2,0.3,0.3,0.4
		C419.1,82.8,418.9,82.9,418.7,82.9"/>
</g>
</svg>
