<?xml version="1.0" encoding="utf-8"?>
<!-- Generator: Adobe Illustrator 22.0.0, SVG Export Plug-In . SVG Version: 6.00 Build 0)  -->
<svg version="1.1" id="Layer_1" xmlns="http://www.w3.org/2000/svg" xmlns:xlink="http://www.w3.org/1999/xlink" x="0px" y="0px"
	 viewBox="0 0 500 424" style="enable-background:new 0 0 500 424;" xml:space="preserve">
<path d="M60.3,190.4c-1.7-0.4-3.2,0-4.2,1.5c-2.2-0.6-4.2-0.2-6,1.1c-0.4,0.3-1,0.6-1.6,0.6c-1.6,0-2.8,0.9-4,1.8
	c-1.8,1.3-3.8,2.5-6.1,3c-0.2,0-0.4,0.1-0.5,0.2c-2.2,1.3-4.7,1.8-6.9,3.1c-1.5,0.9-3.2,1.7-4.9,2.2c-1.7,0.5-3.3,1.3-4.7,2.4
	c-2.5,1.9-5.3,3.1-8.5,3.5c-0.7,0.1-1.5,0.4-2.2,0.7c-0.9,0.4-1.8,0.4-2.8,0.4c-0.1-0.6-0.3-1.1-0.4-1.6c0.9-1.7,3.4-1.8,4-4
	c-0.3-0.1-0.7-0.4-1-0.4c-0.7,0.2-1.5,0.4-2,0.8c-1.3,1.1-2.9,1.5-4.3,2.2c-0.6-0.6-0.3-1.2,0-1.3c2.1-1,3.7-2.8,6.1-3.4
	c2.4-0.6,4.7-1.8,7.1-2.8c2.2-0.9,4.4-1.6,6.4-2.9c0.3-0.2,0.7-0.1,1.2-0.2c-1.3,1.8-3.3,2.8-6.2,3.4c-0.4,0.5-0.7,1-1.2,1.6
	c0.3,0.5,0.4,1,0.8,1.3c0.3,0.3,0.9,0.5,1.2,0.5c0.9-0.1,1.8-0.5,2.4-1.3c0.5-0.6,1.1-0.9,1.9-1c1-0.1,1.8-0.5,2.5-1.2
	c1.1-1.2,2.5-2,4-2.6c1.8-0.8,1.8-1.1,1.2-3.1c-0.1-0.2-0.1-0.4-0.1-0.6c1-0.6,2-1.3,3.1-1.9c0.4-0.2,1.1,0,1.9,0
	c-0.4,0.6-0.6,1-0.8,1.3c-0.5,0.7-0.5,0.7,0.5,1.6c0.7-0.6,1.3-1.3,2.1-1.8c0.7-0.5,2,0.1,2.5-1.2c-0.7-0.6-1.5-1.3-2.3-2l0,0.1
	c0.5-0.5,0.6-1.2,0.7-1.8c0.2-1,0.9-1.7,1.9-1.9c0.9-0.2,1.7-0.7,2.7-0.6c2.1,0.2,2.8-0.4,3.3-2.7c0.1-0.4,0.2-0.7,0.6-0.8
	c0.7,0,1.3-0.3,1.7-0.9c0.6-0.8,1.5-1.1,2.5-1c1.5,0.1,2.8-0.3,4-1.1c1.8-1.1,3.7-1.9,5.5-2.9c1-0.5,1.7-1.4,2.7-1.9
	c0.9-0.5,1.9-0.9,2.9-1.1c1.7-0.4,3-1.5,4.6-2.1c0.4-0.2,0.8-0.5,1.1-0.8c1.5-1.5,3.1-3.1,5.4-3.4c0.3,0,0.6-0.2,0.7-0.4
	c1.3-1.5,3.3-1.8,4.8-3c1.5-1.1,3.1-2.2,4.7-3.2c0.9-0.6,1.8-1.1,2.7-1.5c1.6-0.8,3.2-1.5,4.8-2.3c0.5-0.3,1.1-0.5,1.4-0.9
	c1.6-2.2,4.2-3.1,6.4-4.4c1.8-1.1,3.4-2.3,5.5-2.7c1.5-1.6,3.6-2.3,5.3-3.6c2.3-1.7,4.6-3.2,7-4.7c1.2-0.7,2.5-1.4,3.8-1.8
	c0.8-0.3,1.5-0.6,2.3-1.1c1.1-0.6,2-1.6,3.6-1.5c0.7,0,1.5-0.6,2.3-1l0.2,0.1c-0.1,0-0.1,0-0.2-0.1c0.9-0.6,1.1-1.8,1.8-2.5
	c0.7-0.7,1.8-1,2.6-1.7c1.7-1.5,3.7-2.5,5.5-3.8c1.9-1.5,4.1-2.6,6.4-3.6c0.1-0.9,0.3-1.7,0.4-2.5c0.8,0.4,1.3,1,2.1,0.5
	c0.4-0.2,0.8-0.5,1-0.9c0.3-0.6,0.4-1.2,0.6-1.8c1.3-0.6,2.6-1.2,3.9-1.8c0.2,0.2,0.6,0.4,1.2,0.8c0.4-0.6,0.8-1.1,1.1-1.6
	c0.9-1.7,2.4-2.6,4.3-2.8c0.2,0.4,0.3,0.8,0.5,1.2c0.1,0.1,0.1,0.1,0.2,0.2c-0.1,0-0.2-0.1-0.2-0.1c-0.2-0.4-0.3-0.8-0.4-1.3
	c-0.1-0.4-0.1-0.7-0.2-1.2c1.4-0.8,2.7-1.7,4.1-2.5c2.1-1.2,4.1-2.6,6-4.2c1.6-1.4,3.7-2.1,5.3-3.5c1.2-1,2.7-1.7,4-2.6
	c1.2-0.9,2.4-1.7,3.5-2.8c1.1-1.1,2.4-1.8,3.8-2.4c1.3-0.7,2.8-1.2,3.6-2.7c0.1-0.2,0.3-0.4,0.4-0.4c1.5-0.1,2-1.4,2.6-2.4
	c0.5-0.8,1.1-1.3,2-1.3c1.2,0,2.2-0.4,3-1.3c0.3-0.3,0.8-0.4,1.2-0.7c1.1-0.6,2.3-1,3.2-1.8c2.9-2.7,6.6-4.3,9.4-7.2
	c0.5-0.5,1.3-0.8,1.9-1.1c1.9-0.7,3.5-1.8,5.1-3c1.8-1.5,3.9-2.6,5.4-4.5c0.2-0.2,0.5-0.3,0.7-0.4c2.6-1,4.2-3,5.9-4.9
	c-0.1-0.5-0.5-0.5-0.9-0.5c-1.3,0.3-2.6,0.6-3.8,0.9l0.1,0.1c-0.1-0.3-0.3-0.8-0.2-1c0.4-0.7,1.4-0.7,1.7-1.6
	c0.2-0.7,0.7-1.3,1.1-1.9c-0.2-0.3-0.4-0.6-0.6-0.9l0.1,0.1c0.8-0.3,1.6-0.6,2.4-0.9c0.9-0.3,1.7-0.5,2.7-0.8c0,0.3,0.2,0.6,0.1,0.8
	c-0.3,0.5-0.7,0.9-1,1.3c-0.5,0.7-0.9,1.4-0.7,2.3c0.2,0,0.5,0.2,0.6,0.1c1.1-0.8,2.3-1.1,3.7-1.2c0.5,0,1.2-0.4,1.4-0.8
	c0.7-1.3,1.9-1.8,3.1-2.4c0.8-0.4,1.4-0.9,1.4-2c-1.3-0.8-2.7-0.1-4.3-0.2c0.8-1.3,1.1-2.5,2.5-3.1c1-0.5,1.7-1.5,2.5-2.3
	c0.3-0.3,0.5-0.9,0.1-1.2c-0.3-0.3-0.9-0.4-1.3-0.4c-0.6,0.1-1.2,0.5-1.8,0.7c-0.7,0.4-1.5,0.8-2.3,1.2c-0.1-0.4-0.1-0.7-0.2-1
	c0.7-0.3,1.3-0.7,2-0.9c1.9-0.4,2.8-2,4.2-3c0.6-0.4,0.8-1.5,1.1-2.2l-0.1,0c0.8,0.6,1.8,0.7,2.7,0.7l-0.1-0.1
	c-0.1,0.3-0.2,0.7-0.4,1c-0.7,0.6-1.5,1.1-2.2,1.7c-0.4,0.4-0.5,0.9-0.7,1.4c0.9,0.9,1.6,0.6,2.4,0.2c0.9-0.6,1.9-1.3,2.8-1.9
	c1.1-0.7,2.3-1.3,3.5-1.6c0.5,0.6,0,0.7-0.3,0.9c-2.1,1.2-3.7,2.8-5.4,5c0.4,0.3,0.7,0.6,0.9,0.8c2.1-0.5,3.6-1.4,5.2-2.2
	c2.9-1.6,5.5-3.6,8.1-5.6c0.4-0.3,0.8-0.7,1.2-0.7c1.9,0.1,2.6-1.2,3.4-2.5c0.2-0.2,0.2-0.5,0.3-0.8c0.4-1,1.3-1.6,2.2-2.1
	c1-0.5,1.2-1.4,0.7-2.5c2-1.8,4-3.7,6-5.5c-0.3-0.7-0.8-0.8-1.4-0.6c-0.4,0.2-0.9,0.3-1.3,0.6c-0.9,0.7-1.9,0.7-3,0.7l0.1,0.1
	c0.3-0.5,0.6-1.2,1.1-1.6c1.7-1.3,3.5-2.5,5.3-3.7c0.3-0.2,0.7-0.3,1-0.5c1,0.8,0,1.6,0.3,2.6c0.5,0.4,1.2,0.8,1.8,1.2
	c1.6-0.2,2.5-1.1,3.8-2c0.2,0.1,0.5,0.2,0.9,0.2c0.7,0.2,1.4,0,1.6-0.8c0.4-1.6,1.8-2.1,3.1-2.6c2.4-1,4.4-2.9,6.8-4
	c0.1,0,0.2-0.1,0.2-0.2c1-2.2,3.2-3.3,4.7-5.1c0.5-0.6,0.5-0.9,0.2-2.4c-1.2,0.6-2.6,0.9-3.6,2c-1.1,1.1-2.3,1.9-3.9,2
	c-0.6,0-1.2,0.5-1.7,0.9c-1.1,0.8-2,1.7-3.1,2.5c-0.7,0.6-0.7,0.6-2.5,0.2c0.3-0.4,0.5-0.9,0.9-1.1c1.5-0.9,2.8-1.9,4.1-2.9
	c0.4-0.3,0.8-0.6,1.2-0.7c1.6-0.6,3.1-1.4,3.8-3.1c0.4-0.8,1.3-1,2.1-1.4c0.6-0.3,1.3-0.4,1.8-0.8c1.1-0.9,2.3-1.2,3.7-1.1
	c0.9,0.6,0.4,1.8,0.8,2.7c1,0.2,2,0.5,3.1,0.6c1,0.1,2,0,3,0c0.4,0.7-0.1,1.3-0.4,1.8c-0.2,0.5-0.3,0.9,0,1.3c0.4,0.7,1,0.3,1.5,0.1
	c0.1,0,0.2,0,0.4,0c-0.3,0.9-0.7,1.8-1,2.6c0.7,0.7,1.3,0.6,1.9,0.2c1-0.9,2.3-0.8,3.5-0.8c0.9-0.1,1.5,0.7,1,1.4
	c-0.7,0.9-0.3,1.4,0.3,1.9c0.4,0.4,0.9,0.7,1.3,1c0.4,2.1-1.3,2.8-2.4,4c0.1,0.4,0.2,0.9,0.3,1.3l-0.1-0.1c0.7,0.1,1.3,0.2,2,0.2
	c0.3,0,0.5-0.1,0.9-0.2c0.9,0.8,1.8,1.6,2.7,2.4c1.8-0.8,1.8-0.8,1.6-2.2c0.7-0.6,1.4-1.2,2.1-1.8c0.8-0.6,1.6-1.2,2.8-0.9
	c0.6,0.2,1.5-0.2,2.2-0.5c1.1-0.4,2.2-0.9,3.4-1.3c0.6,0.4,1.3,0.7,1.9,1.2c1.2,1.1,1.1,1.1,2.2,0.6c1.8-0.8,3.5-1.9,5.5-2.1
	c0.2,0,0.5,0,1.2,0.1c-1.2,0.6-2,1-2.8,1.5c-1.2,0.8-2.5,1.4-3.1,2.8c-0.4,0.7-0.3,1.7,0.3,2c1,0.5,1.5,1.7,2.8,1.7
	c0.1,0,0.2,0,0.3,0.1c1.1,1,2.4,1.5,3.9,1c1.2-0.4,2.6-0.6,3.6-1.6c0.7-0.8,1.7-1.1,2.9-1.1c0.9,1,1.5,2.3,2.9,2.9
	c0.4,0.2,0.6,1.1,0.9,1.9c1.5-0.1,2.4,1.2,3.5,1.9c0.5,0.3,1,0.6,1.6,0.1c-0.1-1-1.6-1.3-1.5-2.5c0.1-1,0.1-2.1,0.2-3.3
	c1.5-0.4,2.7-1.9,4.4-2.1c0.6-0.1,1.1-0.3,1.6,0c1.1,0.5,2.2,0.3,3.4,0.2c0.7-0.1,1.3-0.4,1.6-1c0.8-1.5,2.2-2.3,3.8-2.7
	c2-0.5,3.4-1.6,4-3.3c1.9-0.5,3.7-0.9,5.4-1.4c0.7-0.2,1.4-0.5,1.8-1.3c0.6-1.6,2-2.5,3.3-3.4l0,0c-0.2,0.8-0.5,1.6-0.7,2.4
	c0.8,1.9,0.8,1.9-0.5,4.2c-1.7,0-2.7,1.3-3.9,2.3c-0.9,0.7-1.8,1.3-3,1.5c-1.5,0.2-2.5,1.4-3.6,2.2c-0.5,0.4-0.5,1.4,0,1.8
	c0.6,0.4,1.3,0.8,1.8,1.1c0.1,0.6-0.2,0.9-0.6,0.8c-1.1-0.2-2.2-0.5-3.3-0.8c-0.8,0.4-1.7,1-2.6,1.3c-1.3,0.4-1.9,1.2-1.6,2.5
	c0.1,0.3-0.1,0.5-0.1,0.9c-0.7,0.4-1.4,0.8-2.2,1.1c-0.7,0.3-1.4,0.5-2.2,0.8c-0.5,1-1,2.1-1.6,3.3c1.5,1.4,3.4,1,5,1.5
	c1.7,0.6,3.3,0,5-0.4l0.1,0.1l-0.1-0.1c0.4-0.7,0.9-1.4,1.8-1.7l0,0c0,0.6,0,1.3,0.1,1.9c0.1,0.6,0.9,1.5,1.5,1.4
	c0.4,0,0.9-0.3,1.2-0.6c0.4-0.5,0.4-1.6-0.2-2.1c-0.4-0.3-1-0.5-1.5-0.8l0.1,0.1c0.2-1,0.5-2,0.7-3.2c0.9-0.3,1.8-0.4,2.8,0.1
	c2.1,1.1,4.1,1.1,6.2,0c0.9-0.5,1.6-0.4,2.3,0.3l-0.1-0.1c-1,1.2-1.6,2.5-1.3,4.1c0,0.3-0.1,0.5-0.1,0.8c-0.6,0.4-1.1,0.8-1.8,0.2
	c-0.9-1-1.9-1.2-3,0c0.3,0.7,0.5,1.5,0.8,2.3c-0.2,0.7-0.4,1.4-0.6,2.1c0,0.1,0,0.2,0.1,0.3c0.9,0.3,2.8,0.1,3.3-0.4
	c0.8-0.8,1.6-1.6,2.5-2.5c0.4,0,1,0,1.6,0c1,0,1.9,0.1,2.3-1.1c0.1-0.3,0.8-0.5,1.2-0.6c0.5-0.1,1.1-0.1,1.7-0.2
	c2.3-0.2,4.4-0.6,6.2-2.3c1-0.9,2.4-1.5,3.5-2.3c3.4-2.3,6.9-4.7,10.5-6.6c0.7-0.4,1.5-0.8,2.3-1c1.6-0.3,3-1.1,4.4-1.9
	c1-0.5,2.1-0.9,3.1-1.2c1-0.2,2-0.5,2.9-0.9c0.8-0.4,1.7-0.7,2.6-1c0.3-0.1,0.6-0.1,0.8-0.3c0.7-0.4,1.3-1.3,2.2-1.1
	c1.6,0.4,3.4,0,5,1.2c0.1,0.6,0.1,1.2,0.2,1.8c-0.2,0.1-0.3,0.3-0.4,0.3c-0.9,0.1-1.7,0.2-2.7-0.2c-1.7-0.7-3.5-0.4-5.2-0.2
	c-2.7,0.4-4.9,1.8-6.7,3.9c0,0.3,0.1,0.7,0.1,1.2c-1.3,0.5-2.2,1.7-3.7,1.9c-0.3,0-0.6,0.4-0.8,0.7c-1.3,1.3-2.9,2.2-4.8,2.5
	c-0.3,0.1-0.8,0.2-1,0.4c-1.2,1.4-2.7,2.3-4.3,3.1c-2.5,1.2-4.6,3-6.7,4.7c-1.4,1.1-2.8,2.1-4.4,2.9c-1.6,0.9-3.6,1.1-5,2.5
	c-1.4-0.3-2.2,0.8-3.2,1.4c-1.7,0.9-4.2,3.9-5.2,5.7c-0.4,0.6,0.2,1.2,0,1.6c-0.8,2.2,0.4,4.3,0.3,6.4c0,0.8,1,1.2,1.7,0.8
	c0.7-0.4,1.3-0.8,2-1.3c0.4,0.4,0.7,0.8,1.1,1.2c0.4,0.4,0.8,0.8,1.1,1.2c0.2,1.3-0.8,2-1.1,3.1c0.6,0.9,1.6,0.6,2.5,0.6l-0.1-0.1
	c-0.1,1.2-1.6,1.3-1.9,2.4c0.4,1.2,2.5,1,2.4,2.8c-1.3-0.3-1.9,0.8-2.7,1.5c-0.6,0.6-0.6,1.4-0.1,2c0.3,0.4,0.8,0.8,1.2,1.1
	c0.1,0.9,0.1,1.8,0.2,2.6c0.1,0.8,1,1.3,1.7,0.9c1.1-0.5,2.2-1,3.3-1.7c1.4-0.8,1.6-1.3,2-3.6c1.9,0.5,2.9-1.2,4.4-1.9l-0.1,0.1
	c0.7-0.2,1.4-0.4,2.1-0.6c0.2,0,0.4,0.2,0.6,0.3c0,0.2,0,0.4-0.1,0.4c-0.5,0.2-1,0.3-1.7,0.5c-0.1,0.5-0.3,1-0.4,1.5
	c-0.1,0.6-0.1,1.3-0.2,1.9c-0.2,1.8-0.8,3.2-2.6,3.8c0.1-1-0.4-1.8-1.2-2.3c-0.4-0.2-1.1,0-1.1,0.5c0,0.4,0.1,0.9,0.3,1.2
	c0.5,0.7,1.3,0.5,2,0.5c-0.1,0.4-0.3,0.9-0.5,1.3c-0.2,0.5-0.6,1-0.8,1.5c-0.3,0.9,0.2,1.5,1.1,1.4c1.2,0,2.2-0.4,2.9-1.5
	c0.3-0.5,0.6-1,0.9-1.5c1.3,0.2,2.6,0.3,3.3-1.3c1.1-0.5,2.1-1.1,3.2-1.6c1.2-0.5,2.1-1.3,2.9-2.2c1.4-1.8,3.4-3,5.1-4.5
	c0.8-0.7,1.6-1.3,2.3-2c2.1-1.9,4.2-3.7,6.3-5.6c0.4-0.4,0.9-0.7,1.2-1.2c0.4-0.8,0.9-1.2,1.7-1.4c1.8-0.5,3.2-1.8,4.3-3.1
	c1.2-1.3,2.6-2.2,3.8-3.1c1.3,0.2,2.4,0.4,3.7,0.6c0.7,1.5,0.8,2.9-0.7,4.3c-0.8,0.8-1.6,1.6-2.6,2.2c-3.7,2.2-6.7,5.2-9.6,8.3
	c-1.3,1.5-2.6,2.9-4.2,4.1c-1.1,0.8-2,2-3,3c-0.6,0.6-1.2,1.3-1.9,1.7c-3.2,2-5.8,4.6-8.3,7.2c-0.9,0.9-1.7,1.6-2.9,2.2
	c-1.6,0.7-3,2-3.1,4c0.7,0.9,1.4-0.1,2.1,0.1c0.1,0.5,0.2,1.1,0.3,1.7c0.9-0.1,1.7-0.2,2.6-0.2c1.3,0,2.3-0.7,2.4-2
	c0.2-1.4,1-2,2.1-2.5c1.5-0.6,2.8-1.6,4.1-2.5c1.6-1.1,3.3-2.2,5-3.1c0.6-0.3,1.1-0.5,1.6-1c0.9-0.9,1.9-1.5,2.8-2.4c1-1,2-2,3-3
	c1.7-1.9,3.6-3.5,5.9-4.7c0.3-0.2,0.7-0.3,1-0.6c2.8-2.5,6-4.5,8.5-7.4c0.8-0.9,1.9-1.6,3.4-1.7c1,0,1.9-0.9,3-1.5
	c0.7,0.4-0.2,1.1,0.1,1.7c0.2,0.5,0.2,1.1,0.4,1.8c-2.3,2.2-4.6,4.4-6.8,6.7c-0.3,0.3-0.9,0.6-1,1c-0.3,0.9-1.1,1.3-1.7,1.7
	c-1.1,0.7-2.2,1.5-2.7,2.8c-0.3,0.8-1,1.3-1.8,1.7c-0.6,0.2-1.2,0.6-1.6,1.1c-1,1.3-2.9,1.4-3.6,3.1c-0.6,1.5-2,2.2-3.2,3.2
	c-1,0.9-2.2,1.5-3.2,2.3c-1.2,1-2.4,2.1-3.5,3.2c-0.6,0.6-1.2,1-2,0.8c-0.9-0.3-1.4,0.1-2.1,0.6c-1.9,1.5-3.8,3-5.8,4.6
	c-0.7,0.6-1.4,1.3-2.1,1.9c-1.4,1-2.5,2.2-2.8,4.1c-0.1,0.5-0.6,0.9-0.8,1.5c-0.1,0.4-0.1,0.9-0.1,1.2c0.4,0.1,0.5,0.3,0.7,0.2
	c1.4-0.1,2.5-1,3.7-1.3c1.3-0.3,2.5-0.9,3.5-1.8c0.2-0.2,0.4-0.5,0.7-0.5c1.6-0.1,2.3-1.4,3.2-2.3c0.3,0,0.5-0.1,0.7-0.1
	c2,0.5,3.8,0.3,5.8-0.4c1.2-0.4,2.2-0.8,3.2-1.7c0.7-0.7,1.6-1.2,2.4-1.8c0.5-1.1-0.4-2-0.5-3.1c2.8-1.5,4.4-4.3,7.3-5.8
	c0.5-0.3,0.9-0.7,1.2-1.2c0.6-0.8,1.3-1.3,2.1-1.8c1.2-0.6,2.1-1.6,2.9-2.7c0.7-0.9,1.2-1.1,3.1-1.2c-0.3,0.4-0.5,0.7-0.7,0.9
	c-1.3,1.2-2.7,2.3-4.1,3.5c-0.6,0.5-1.3,1-1.6,1.6c-0.7,1.5-1.8,2.4-3.2,3.1c-0.2,0.1-0.5,0.3-0.6,0.6c-0.1,0.4-0.2,0.9-0.2,1.3
	c0.1,0.4,1,0.5,1.5,0.2c0.2-0.1,0.4-0.2,0.5-0.3c0.9-1.2,2.3-1.6,3.5-2.2l0.1,0.1l-0.2-0.1c0.6-0.4,1.2-0.8,1.8-1.2l0.1,0.2
	l-0.1-0.1c0.3-0.3,0.5-0.8,0.9-1c0.8-0.4,1.5-1.1,2-1.8l0.1,0.1l-0.1-0.1c1-1.1,1.9-2.5,3.3-2.9c2.3-0.7,3.8-2.6,5.7-3.9l0,0
	c-0.2,1.6-0.7,3-2.1,4.1c-0.7,0.5-1.3,1.4-1.8,2.2c-0.5,0.9-1.2,1.5-2.1,1.7c-1.3,0.2-2.2,1-3.1,1.8c-1.4,1.1-2.6,2.5-4.4,2.9
	c-0.1,0-0.2,0.1-0.2,0.1c-1.6,1.8-3.6,3.3-4.4,5.8c-0.1,0.2,0.1,0.5,0.1,0.8l-0.1,0l0.1-0.1c0.1,0.2,0.4,0.5,0.4,0.7
	c-0.6,1.7,0.5,2.5,1.6,3.1c1.1,0.6,2.4,0.5,3.2-0.8c1.8,0.5,3.6,0.8,5.4-0.6c0,0.7,0,1.2,0.1,1.7c0.1,1.2,0.2,1.3,1.8,1.5l-0.1-0.1
	c-0.3,1.3-0.3,2.5,1.2,3.1c0.7,0.3,0.5,1.2,0.8,1.7c0.3,0.3,0.7,0.7,1.1,0.8c0.4,0,0.9-0.3,1.1-0.7c0.3-0.7,0.5-1.6,0.7-2.3
	c1-0.3,1.8,0.1,2.4,0.7c0.2,1.1-0.1,2-1.1,2.7c-0.6,0.3-1.1,0.8-1.5,1.3c-0.9,1-0.7,2,0.4,2.9c0.4,0.3,0.9,0.7,1.3,1.1
	c0.3,0.3,0.4,0.9,0.4,1.3c0,0.3-0.4,0.6-0.8,0.9c0.3,0.6,0.5,1.3,0.8,2c-0.1,0.3-0.2,0.6-0.4,0.8c-0.4,0.4-0.8,0.9-1.3,1
	c-1.2,0.3-1.9,1.2-2.6,2l0.1,0c-0.2,0-0.4,0.1-0.5,0.2c-0.1,0.1-0.2,0.2-0.2,0.3c0.1,0,0.2,0.1,0.2,0.1c0.2,0,0.3,0.1,0.5,0.1
	l-0.1,0c-0.1,0.9,0.5,1.3,1.3,1.7c1.4-0.4,1.7-2.7,3.7-2.1c0.1,0.7-0.5,0.9-0.8,1.2c-0.3,0.4-0.7,0.6-1.1,0.9
	c-1.2,0.9-2.4,1.9-3.6,2.8c-1.3,0.9-2.2,2-2.1,3.9c-2,0.6-3.5,2-4.9,3.3c-1,0.9-1.8,1.9-1.7,3.4c0,0.3,0.2,0.7,0.5,0.9
	c0.4,0.3,0.8,0.4,1.3,0.1c0.5-0.4,1-0.8,1.6-1.3c0.5,0.6,1,1.1,1.5,1.7c-0.3,0.5-0.6,1.1-1,1.6c-1.1,1.1-1.5,1-2.6-0.3
	c-0.2-0.2-0.4-0.3-0.8-0.6c-0.5,0.9-0.9,1.7-1.4,2.5c-0.2,0.3-0.2,0.9-0.4,1c-1.3,0.9-1.1,2.3-1.3,3.6c0.4,0.7,0.9,0.9,1.7,0.5
	c0.3-0.1,0.6-0.2,0.8-0.3c1.5-1.6,3.7-2.3,4.9-4.2c0.1-0.1,0.3-0.2,0.5-0.2l-0.1-0.1c0.2,1,0.4,2-0.3,3c-0.7,0.4-1.5,0.7-2.2,1.1
	c-0.9,0.5-1.7,1.2-2,2.3c-0.1,0.4-0.3,1-0.6,1.3c-2.2,1.5-3.3,4.1-5.4,5.7c-0.1,1.1-0.2,2.2,0.7,3.1c1.5,0.4,2.2-0.6,3-1.6l0.2,0.1
	l-0.1-0.2c1.5-0.3,3-0.6,4.7-1c-0.2,0.9-0.3,1.5-0.4,2.1c-0.1,0.6,0.4,1.1,1,1.1c1.6,0,3.7-1.1,3.1-3.4c-0.3-1,0.1-1.6,0.9-2.3
	c0.1,0.7,0.2,1.3,0.3,2c1.1,0.2,2.2,0.4,3.4,0.7c-0.1,0.4-0.2,0.8-0.4,1.1c-0.5,0.7-1,1.4-1.7,1.9c-0.6,0.4-0.5,1-0.7,1.4
	c-0.3,0.7,0.1,1,0.6,1.4c0.2,0.2,0.3,0.7,0.4,1c0.1,1.1,0.8,1.9,1.7,2.7c1.1-0.4,2.3-0.6,3.2-1.3c0.9-0.6,1.8-1.4,2.6-2
	c1.6,0.2,1.6,1.4,1.7,2.7c-1.2,0.3-2.4,0.7-3.7,1c0.1,0.6,0.3,1.1,0.2,1.5c-0.1,0.4-0.3,0.9-0.6,1.2c-0.3,0.3-0.9,0.4-1.3,0.6
	c-1.4,0.6-1.4,0.7-1.7,2.8c1.4,1.1,2.3-1,3.7-0.7c0.6,1.1-0.5,2.1,0,3.4c-0.8,0.2-1.5,0.3-2.1,0.4c-1.6,0.3-2.3,1.8-1.6,3.2
	c0.2,0.3,0.3,0.7,0.6,0.9c1,0.9,1.5,2.1,2,3.4c0.6-0.2,1.2-0.2,1.6-0.5c0.8-0.6,1.6-1.4,2.2-2.2c1.3-2.2,3.1-3.8,5.4-4.5
	c0.8-1.1,0.2-2,0.1-3.1c0.5-0.5,1-1.2,1.5-1.7c0.3-0.1,0.4-0.1,0.5-0.1c4.8,0.5,3.5,0.1,6.8-2.3c0.4-1.2,1.8-1,2.4-1.8
	c0.7-0.8,1.2-1.8,2-2.4c1.4-1.1,2.6-2.5,4.5-3c0.9,1.6,2.8,2.3,3.9,4.1c-1.5,2.1-2.9,4.2-5.8,4.7c-0.8,0.1-1.4,0.6-1.8,1.2
	c-0.2,0.3-0.5,0.6-0.7,0.9c-1.2,2.9-3.5,4.8-5.9,6.7c-0.4,0.3-0.9,0.6-1.4,0.9c-0.8,0.5-1.6,1-2.3,1.4c-0.4,4.2-3.4,6.2-6.6,8.4
	c-0.1,0.4-0.1,1.2-0.3,1.9c-0.2,0.6-0.5,1.2-0.9,1.8c0.4,0.4,0.8,0.8,1,1.1h2.9c-0.4,1.1-1.1,2-1.9,2.8c-0.7,0.7-1.4,1.5-2.2,2.2
	c-0.4,0.4-0.4,0.3-1.9,0.3c-0.2-0.6-0.4-1.2-0.5-1.7c-1.1-0.3-1.8,0.3-2.3,1c-0.5,0.8-1,1.3-2,1.3c-0.9,0-1.6,0.7-2,1.4
	c-0.4,0.7-0.7,1.5-1.1,2.3c1.2,0.6,2.1,0.4,3-0.3c0.4-0.3,0.9-0.7,1.2-1.2c0.6-0.6,1.3-1,2-0.6c1.2,0.5,2.2,0.1,3.1-0.7
	c2.3,0.1,4.6,0.8,7.2-0.3c-1,1.7-2.5,1.9-3.6,2.8c-1,0.9-2.8,0.6-3.4,2.5c1.2,0.5,2.3,0.5,3.3-0.1c1.3-0.8,2.5-1.1,3.5,0.2
	c0.9,1.1,1.4,2.5,0.6,3.9c-0.1,0.2-0.1,0.3-0.2,0.5c1.7,1.4,1.9,1.9,1.6,3.8c-0.1,0.7-0.4,1.5-0.5,2.2c-0.1,0.6-0.2,1.1-0.3,1.7
	c0,0.3,0,0.5,0.1,1c0.6,0.1,1.2,0.3,1.8,0.3c0.6,0.1,1.1,0,1.7,0c0.5,0.7,0.2,1.2-0.3,1.7c-0.6,0.6-1.4,1-1.9,1.7
	c-0.5,0.6-0.8,1.3-1.2,1.9c-0.4,0-0.8,0.1-1.1,0.1c-1.4-0.2-2.4,0.4-3,1.6c-0.5,1-1.3,1.6-2.2,2.1c-1.3,0.8-2.5,1.8-3.7,2.6
	c-0.3,0.2-0.6,0.3-1.2,0.6c0.6-1.8,2-2.1,3.1-3c-0.2-0.4-0.3-0.8-0.5-1.1c-1.2,0-2.1,0.5-2.9,1.1c-1.4,0.8-2.8,1.6-4.1,2.5
	c-0.7,0.4-1.4,1-2,1.5c-1,0.7-1.9,1.5-3,2.2c-0.3,0.2-0.8,0-1.4,0c0.1-1.3,0.8-1.9,1.7-2.2c1.3-0.3,2-1.3,2.9-2.2
	c1-1,2.1-1.8,3.2-2.8c0.2-0.8-0.4-1.4-1-1.9c-0.6-0.5-1.3-0.6-1.7,0c-0.9,1.3-2.5,2-3.1,3.6c-0.2,0.5-0.6,1.1-1.1,1.2
	c-1.4,0.5-2.3,1.7-3.4,2.5c-3.4,2.3-6.7,4.8-9.9,7.5c-1.7,1.4-3.4,2.7-5.1,4.1c-0.5,0.4-0.9,0.9-1.1,1.6c-0.1,0.6-0.7,1.1-1,1.7
	c-0.3,0.5-0.5,1-0.8,1.5c0.5,0.3,1.1,0.6,1.4,0.9c0.3,0.4,0.4,1,0.7,1.6c1.1-0.2,2-0.5,3.2-0.7c-2.4,3-5.4,5-7.9,7.7
	c-0.6-0.3-1.1-0.4-1.5-0.7c-0.7-0.4-1.2-0.3-1.8,0.3c-1.2,1.2-2.3,2.5-3.5,3.7c-0.5,0.5-1.1,1-1.7,1.5c-2.2,1.6-4.3,3.4-6.8,4.7
	c-0.3,0.1-0.5,0.3-0.7,0.5c-2.5,2.4-5.7,3.6-8.5,5.4c0,0-0.1-0.1-0.3-0.2c1.2-1.9,2.8-3.2,4.7-4.3c0.8-0.4,1.5-0.8,2-1.5
	c0.3-0.3,0.8-0.5,1.2-0.7c0.6-0.3,1.4-0.3,1.8-0.7c1.2-1.4,2.8-2.2,4.3-3.1c0.2-0.1,0.6-0.4,0.6-0.6c0-1.6,1.3-2.6,1.8-4
	c0-0.1-0.1-0.2-0.1-0.4c-1.4,0.3-2.9,0.5-4.3,1c-1.3,0.4-2.2,1.5-2.8,2.7l0-0.1l0.1,0c-0.6,0.7-1.2,1.2-2.2,1
	c-1.1-0.2-1.9,0.4-2.8,0.9c-3.3,2-5.9,4.9-9.1,7.1c-1,0.7-2,1.4-3.2,1.8c-1.8,0.5-3.1,1.8-4.5,2.8c-1.2,0.8-2.3,1.6-3.7,2
	c-1.1,0.3-2.1,0.9-2.8,1.8c-0.5,0.5-0.9,1.2-1.7,1.1c-0.3,0.8-1.1,1-1.7,1.4c-0.6,0.4-1.2,0.8-1.9,1.2c-0.5,0.3-0.9,0.5-0.9,1.2
	c0,0.3-0.8,0.6-1.2,0.9l0,0.1c-0.2,0-0.4,0-0.7,0l0,0c0,0.2,0,0.5,0,0.7l-0.1,0c-0.5,0.4-1.1,0.7-1.6,1.1c0-0.1,0-0.1-0.1-0.2
	c0,0.1,0.1,0.1,0.1,0.2c-0.3,0.4-0.5,0.8-0.8,1.1c-0.3,0.4-0.8,0.5-1.3,0.2c-0.4-0.2-0.7-0.3-1,0c-1.9,1.8-4.4,2.8-6.4,4.6
	c-0.7,0.7-1.9,1.1-3,1.4c-1.3,0.3-2.5,1.2-3.6,2.1c-2.5,1.8-5,3.8-7.4,5.7c-0.8,0.6-1.5,1.3-2.3,1.6c-1.9,0.7-3.3,2.1-4.9,3.3
	c-1.3,0.9-2.6,1.8-3.9,2.7c-4.7,3.3-9.5,6.5-14.2,9.8c-1.7,1.2-3.5,2.2-5.3,3.2c-1.5,0.9-2.9,1.8-4.2,2.8c-1.1,0.9-2.5,1.4-3.7,2
	c-1.3-0.5-2.3,0.5-3.5,0.5c-0.3,0-0.6,0-0.8,0.1c-1.7,1-3.5,1.7-5.4,2.4c-1.7,0.6-3.2,1.9-4.8,3c-1.6,1-3,2.3-4.7,3.2
	c-1,0.5-1.9,1.2-2.8,1.9c-0.8,0.6-1.7,1.2-2.5,1.8c-0.2,0.2-0.5,0.4-0.7,0.4c-1.8-0.2-2.9,1.2-4.2,2c-1.9,1.1-3.8,2.1-5.6,3.2
	c-1.2,0.7-2.3,1.6-3.5,2.4c-0.5,0.3-0.9,0.8-1.4,0.9c-2.2,0.4-4,1.7-5.7,3c-2,1.5-4.3,2.4-6.5,3.4c-1.3,0.6-2.4,1.5-3.4,2.5
	c-1,1-2,2.1-3.3,2.6c-2.3,0.8-3.9,2.6-5.8,4c-0.8,0.6-1.5,1-2.4,1.4c-1.7,0.8-3.3,1.9-4.9,2.9c-1.4,0.9-2.8,1.9-4.2,2.8
	c0.5,1.3,0.5,1.3,1.7,0.8l-0.1,0.1c3.1-1.1,6.1-2.5,8.8-4.4c0.4-0.3,0.8-0.6,1.2-0.7c2.1-0.4,3.7-1.8,5.5-2.7
	c0.2-0.1,0.3-0.3,0.4-0.3c2.1-0.3,3.5-1.8,5.2-2.8c0.3-0.2,0.7-0.1,1.2-0.1c-0.4,1.4-1.3,2.1-2.3,2.6c-0.6,0.4-1.4,0.6-2.1,0.9
	c-0.3,0.1-0.8,0.1-1.1,0.4c-0.8,0.6-1.5,1.5-2.4,1.8c-1,0.3-2,0.5-2.9,1c-2.2,1.2-4.4,2.5-6.6,3.8c-0.5,0.3-1,0.6-1.5,0.8
	c-0.9,0.3-1.5,1-2.1,1.8c-1.3,2-1.4,2-4,1.4c-0.5,0.4-1,0.7-1.5,1.1l0.1,0.1c-0.2-0.2-0.4-0.4-0.6-0.8c-1.4,0.7-3.2,0.8-4.6,1.8
	c-0.6,0.4-1.4,0.6-2,1c-0.5,0.3-0.9,0.6-1.4,0.9c-0.5,0.4-0.5,1.2-1.3,1.4c-1.5,0.3-2.6,1.4-4.2,1.6c-2.6,0.3-4.9,1.3-6.7,3.4
	c-1.4,0-2.7,0.3-3.9,1.3c-0.5,0.4-1.2,0.9-1.7,0.8c-1.3-0.2-2.2,0.6-3.2,1c-1,0.4-2.1,0.6-2.6,1.9c-0.3,0.8-1.3,1-2.2,1.2
	c-0.7,0.1-1.4,0.2-2,0.9c-1,1.1-1,1.1-3.1,0.9c0.6-1,1.2-1.9,1.7-2.9c0.3-0.7-0.2-1.5-0.9-1.4c-0.9,0.1-1.9,0.3-2.7,0.6
	c-1.2,0.4-2.3,0.9-3.4,1.5c-1.2,0.6-2.2,1.4-3.5,2.2c-0.7-0.5-1.4-1.1-2.2-1.7c-1.3,0.3-2.3,1.1-3.3,1.9c-0.9,0.7-0.8,1.4,0.4,2
	c0.2,0.1,0.3,0.2,0.4,0.3c0,0.7-0.8,1.7,0.7,2.2c1-0.6,2.2-1.1,3.6-1.1c0.9,0,1.7-0.7,2.6-1.1c0.6-0.3,1.2-0.6,1.9-0.1
	c-1.3,1.3-3.2,1.5-4.6,2.8c-0.1,0.5-0.1,1.2-0.2,1.7c-1.2,0.6-2.2,1.3-3.4,1.6c-1.5,0.4-2.7,1-2.7,2.5c-1.3,0.5-2-0.5-2.8-0.7
	c-3.8,2.7-7.6,4.8-12.3,4.8c-0.5-0.4-1.1-0.9-1.7-1.4c-0.1-0.5-0.3-1.1-0.4-1.6c-0.2-0.9,0-1.6,0.8-2.2c0.8-0.6,1.5-1.4,2.3-2.1
	c0.5,0.4,0.9,0.9,1.4,1c0.5,0.1,1.1-0.2,1.6-0.2c2-0.1,3.7-1.2,5.6-1.6c1.8-0.4,3-1.9,3.8-3.5c0.1-0.1-0.1-0.3-0.2-0.5
	c-1.5,0.5-2.9,1-4.4,1.5c-1.4-1.5-2.9-1.5-4.4-0.4c-1.2,1-2.6,1.5-4.2,1.5c-1.1,0.1-2.3,0.3-3.2,2.1c0-1.1-0.1-1.5,0-1.7
	c0.2-0.3,0.6-0.4,0.9-0.7c-0.3-0.4-0.6-0.8-0.9-1.1c-0.2-0.2-0.3-0.5-0.4-0.6c-0.6,0-1-0.1-1.4,0c-2.6,0.5-5.2,0.8-7.8,0.9
	c-1.3,0-2.4,0.5-3.3,1.4c-0.1,0.9,0.6,1.1,1.2,1.4c1,0.4,2.2,0.6,3.2,0.9c-0.4,1.5-0.9,3-1.3,4.7c-0.3,0-0.8-0.1-1.2-0.1
	c-1,0-2.1-0.2-3.1,0c-1.4,0.3-2.6,0.2-3.7-0.7c-0.4-0.3-0.8-0.4-1.4-0.7c0.2-0.8,0.4-1.6,0.6-2.3c-0.2-0.2-0.4-0.4-0.5-0.4
	c-0.8-0.2-1.7-0.4-2.5-0.5c-0.6-0.1-1.2,0-1.7-0.2c-1.6-0.7-3.1-0.7-4.7,0.1c-1.5-1.9-4.1-3-3.5-6c-1.8-0.8-3.5-1.3-4.3-3.3
	c-0.3-0.8-1.2-1.6-2-1.8c-2-0.5-2.7-2-3.5-3.6c-0.1-0.2-0.1-0.3-0.2-0.6c0.6-0.3,1.1-0.8,1.7-0.9c1.8-0.3,2.8-1.5,3.5-2.9
	c-0.2-1.6-0.3-3.3-2.2-4c-1,0.3-2.1,0.7-3.2,0.9c-0.5,0.1-1.2,0-1.6-0.2c-0.3-0.2-0.4-0.8-0.7-1.3c-1.2-0.3-2.3,0-3.4,0.7
	c-0.9,0.6-1.9,1-2.9,0.7c-1.9-0.6-3.6,0.2-5.2,1c-2.5,1.2-4.9,2.8-7.7,3.6c-0.8,0.2-1.5,0.8-2.2,1.3c-3.3,2.6-7.2,4.1-11.1,5.6
	c-1.4,0.5-2.3,1.8-3.6,2.2c-1.4,0.4-2.6,1-3.7,2c-0.3,0.3-0.8,0.6-1.2,0.8c-1.3,0.6-2.6,1.1-3.9,1.7c-0.3-0.6,0.3-0.8,0.5-1
	c0.9-0.7,1.9-1.2,2.8-1.8c0.3-0.2,0.6-0.5,0.7-0.8c0.6-1.8,1.9-3,3.3-4.1c1-0.7,2-1.4,3-2.1c0.4-0.3,0.8-0.6,0.5-1.1
	c-0.2-0.6-0.7-0.9-1.3-0.9c-0.3,0-0.5,0.1-0.8,0.2c-1.2,0.5-2.5,0.9-3.6,1.5c-1.6,0.9-3.5,1.3-4.9,2.7c-0.2,0.2-0.5,0.2-0.8,0.2
	c-0.4,0-0.9,0-1.6,0c0.3-0.6,0.3-0.9,0.5-1.2c0.4-0.4,0.9-0.7,1.3-1c2.6-1.6,5.1-3.3,7.8-4.6c2.1-1,3.8-2.3,5.7-3.6
	c1.9-1.3,3.8-2.5,5.6-3.8c0.7-0.5,1.3-1.1,1.9-1.7c0.5-0.5,0.3-1.5-0.2-2.1c-0.5-0.5-1.1-1-1.6-1.5c0.5-0.9,0.5-1.6-0.3-2
	c-1.6-0.8-2.4-2.7-4.1-3.3c-0.2-0.1-0.3-0.2-0.4-0.4c-0.4-1-0.8-2-1.2-3c0.7-0.7,1.3-0.4,1.7-0.1c1.4,0.9,2.9,0.8,4.4,0.3
	c0.2-0.1,0.4,0,0.6,0c0.1,0.6,0.2,1.2,0.4,2c0.4,0.1,0.8,0.1,1.2,0.2c0.4,0.1,0.8,0.2,1.1,0.1c1.6-0.5,3.2-1.1,4.8-1.6
	c0.8-0.3,1.6-0.5,2.5-0.5c1.7,0,2.9-0.7,3.8-2.1c1.1-1.6,2.8-2.8,3.5-4.7c0.2-0.5,1-0.5,0.9-1.3c-2.2,0.1-2.3,0-4,0.9
	c-2.4,1.2-4.8,2.6-7.3,3.8c-0.4,0.2-1,0.2-1.5,0.3c-0.2-1,0.4-1.1,0.9-1.4c1.7-0.9,3.5-1.8,5.2-2.8c2-1.1,3.7-2.5,5.2-4.2
	c0.7-0.8,1.6-1.5,2.8-1.9c1.2-0.4,1.5-1.8,0.7-2.8c-0.4-0.5-1-0.9-1.6-1.1c-0.8-0.3-1.7-0.4-2.5-0.4c-0.4,0-1,0.1-1.3,0.3
	c-2.7,2.3-5.9,3.6-9.2,4.8c-1.2,0.4-2.4,1-3.6,1.5c-1-1.3,0-3.2-1.3-4.6c-0.4,0-0.9,0.1-1.5,0.2c-1.2,0.2-2.4,0.5-3.4-0.8
	c-0.2-0.3-0.9-0.4-1.3-0.4c-0.6-0.1-1.3,0-2.1,0c-0.4-0.4-0.8-0.9-1.2-1.4c-0.8-1-1.7-1.4-3-1c-0.8,0.3-1.8,0.2-2,1.3
	c-0.2,1,0.8,1.2,1.2,1.8c0.1,0.1,0.1,0.1,0.2,0.3c-0.8,0.7-1.7,0.9-2.7,1.1c-0.9,0.2-1.5,0.8-1.7,1.7c-0.3,1-0.4,2-0.7,3.2
	c-0.4-0.2-0.8-0.4-1.2-0.7c0.4-1.8,0.8-3.5,1.2-5.2c0.3-1.2,1-2,2.4-1.9c0.2,0,0.3-0.1,0.6-0.2c-0.1-0.3-0.2-0.7-0.4-1.2
	c1.2-0.9,2.4-2,3.9-3.1c-0.1-0.9-1.5-1.4-1-2.6c2.2-0.9,4.4-1.9,6.7-2.8c0.7-0.3,1.3-0.7,1.5-1.7c-0.5-0.5-1.2-0.4-1.7-0.3
	c-1.4,0.4-2.7,0.8-4.1,1.2c-0.4,0.1-1.1,0.2-1.3,0c-1.3-1.2-2.7-0.6-4-0.1c-1.7,0.6-3.3,0.6-5,0.5c-0.4,0-0.8,0-1.1-0.2
	c-1-0.8-2.3-0.6-3.5-0.9l0,0c1-1.2,2.1-2.4,3.5-3.2c1.3-0.8,1.7-1.9,1.5-3.5c-1.6-0.1-3.2-0.2-4.7-0.2c-0.1-0.7,0.4-1,0.8-1.1
	c2.5-0.7,4.9-2.2,7.8-1.2c0.5-0.5,1-1,1.5-1.6c-0.9-1.6-2.4-1.9-3.8-2.4c-1.2-0.4-2.5-0.1-3.6,0.5c-2.2,1.3-4.7,2-7,3.1
	c-1.9,0.9-3.8,2-5.8,2.8c-2.7,1.1-5.3,2.3-8,3.7c-1.1,0.5-2.2,0.9-3.9,0.9c0.5-0.6,0.7-1,1.1-1.2c2.1-1.2,4.3-2.4,6.4-3.5
	c2.4-1.3,4.8-2.6,7-4.3c0.7-0.5,1.6-1,1.2-2.3c-0.1-0.2,0.4-0.9,0.8-1c2.3-0.6,3.9-2.7,6.4-3c0.1,0,0.2,0,0.3-0.1
	c1.2-1.5,3.2-1.9,4.6-3.2c0.5-0.5,1-1.1,1.5-1.7c0.5-0.6,1-1.1,1.5-1.6c0.3-0.3,0.8-0.7,0.8-1.1c0-0.5-0.3-1-0.6-1.7
	c-2.1,0.4-3.9,1.3-5.8,2.3c0.1,0.5,0.2,0.8,0.3,1.2c0.1,0.9-0.2,1.4-1,1.3c-0.8-0.1-1.7-0.2-2.6-0.4c-0.3-0.6-0.5-1.2-0.9-1.7
	c-0.4-0.5-1-0.8-1.5-1.3c1.9-2,4.4-3.1,6.7-4.7c-0.4-0.5-0.8-0.9-1.1-1.2c-1.3,0.1-2.3,1.2-3.8,0.4c1.2-1.5,2.4-3.2,4.2-4
	c1.6-0.7,2.9-2.1,4.6-2.6c0.2,0,0.3-0.2,0.4-0.3c0.9-1.4,2.4-2.1,3.7-2.9c0.1-1.1,0.1-1.1-0.7-3.3c1.1-0.8,2.2-1.7,3.3-2.6
	c0.3-0.7-0.1-1.3-0.4-2c-2.5-0.7-5-0.5-7.4,0.4c-2.8,1-5.5,2.4-8.3,3.7c-0.7,0.3-1.4,0.7-2,1c-1.3,0.7-2.7,1.4-4,2.2
	c-1.5,0.9-2.9,1.7-4.7,1.8c-0.6,0-1.2,0.4-1.9,0.6c-0.5,0.2-1,0.4-1.6,0.5c-0.8,0.1-1.5-0.3-1.3-0.6c0.2-0.3,0.6-0.7,1-0.8
	c2.5-0.9,3-1.4,4-4.1c1,0.3,2.1,0.5,3,0.8c0.9-0.6,1.2-1.4,1.3-2.2c0.1-0.7,0.4-1.2,1.1-1.5c0.8-0.4,1.6-1,2.4-1.5
	c0.9-0.8,1.7-1.7,2.7-2.4c1-0.7,2.2-1.2,3.2-1.9c0.9-0.6,1.7-1.5,2.5-2.2c0.4-0.4,0.9-0.7,1.4-0.9c0.7-0.3,0.6-0.9,0.7-1.5
	c-1.3-1.2-2.8-0.3-4.3-0.5c-0.2-0.6,0.5-0.9,0.6-1.4c0.1-0.5,0.1-1.1,0.2-1.7c-0.9-0.1-1.8-0.2-2.8-0.4c0.4-0.8,0.7-1.5,1.1-2.2
	c-0.1-0.2-0.2-0.4-0.4-0.6c-0.7-0.6-1.4-0.5-2.1-0.2c-1,0.4-2.1,0.9-3.2,1.4c-1.2-0.6-2.5-1.2-3.9-1.9c2.6-2.3,5.7-3.8,8.4-6.3
	c0.4-2.5,0.4-2.5-1.5-3.7l0.1,0.1c0.4-0.3,0.8-0.9,1.3-1c1.2-0.3,2-1,2.9-1.8c0.7-0.6,0.5-1.6-0.3-2.1c-0.4-0.2-0.8-0.4-1.4-0.6
	c0.6-1.6,1.2-3.2,1.7-4.7c-0.7-1-1.3-1.8-1.7-2.5c0-0.9,0.7-1,1-1.4c0.9-1.1,0.6-2.2-0.9-2.5c-0.6-0.1-1.3-0.1-2-0.1
	c0-0.4-0.1-0.8-0.1-1.1c0-0.4,0-0.7-0.1-1.1c-0.3-0.1-0.6-0.3-0.8-0.3c-2.1,0.3-4.3,0.5-6.4,0.9c-0.5,0.1-1,0.2-1.3,0.5
	c-1.3,1-2.8,1-4.2,1.4c-2.3,0.5-4.7,0.5-6.9,1.2c-1.1,0.3-1.9,0.7-2.6,1.5c-0.8,0.8-1.6,1.6-2.4,2.4c-0.3,0.3-0.8,0.5-1.2,0.8
	c-0.8-0.7-1.2-1.8-2.3-2c-0.9-0.1-1.7-0.1-2.2,0.7c-0.8,1.4-2.1,2.1-3.6,2.5c-0.5,0.2-1,0.5-1.5,0.7c-0.5,0.2-1.1,0.2-1.7,0.4
	c0,0.5,0,1-0.1,1.5c0.3,0.1,0.5,0.2,0.8,0.3c1.5,0.2,1.6,0.4,1.6,1.7c0,0.7-0.2,1.3-0.3,2.1c1.9,0.4,3.5-0.2,5-1.2
	c1.8-1.1,1.8-1.1,4.3-0.8c-0.2,0.2-0.3,0.6-0.4,0.6c-0.4,0.1-0.9,0.1-1.4,0.2c-0.7,0.1-1.5,0.3-1.8,1.2c-0.2,0.4-0.5,0.8-0.8,1.2
	c-0.4,0.5-0.8,0.9-1.6,1.1c-1.6,0.4-3.1,1.2-4.6,2c-2.4,1.3-5,2.1-7.8,2.5c-0.7,0.1-1.5,0.2-2.3-0.4c0.5-0.9,0.8-2,1.5-2.8
	c0.7-0.8,1.9-1.2,2.5-2.4c-0.2-0.4-0.5-0.9-0.7-1.5c-0.3,0-0.6-0.1-0.8-0.1c-0.7,0.1-1.5,0.3-2.2,0.3c-0.7,0-1.5-0.1-2.1-0.2
	c-0.3-0.8,0.3-1,0.7-1.2c1.5-0.8,3-1.6,4.5-2.4c0.3-0.2,0.6-0.4,1-0.7c-0.3-0.9-0.9-1.4-1.7-1.8c-0.7-0.3-1.5-0.6-1.9-1.1
	c-1.1-1.2-2.3-1.5-3.8-1.2c-0.2,0-0.4,0-0.6-0.1c-0.6-0.7-0.5-1.5,0.2-2c0.8-0.7,1.7-1.2,2.5-1.9c0.4-0.3,0.9-0.8,0.8-1.1
	c-0.4-1.5,0.8-2.2,1.6-3.2c0.5,0.1,1,0.2,1.6,0.3c1,0.1,1.9-0.2,2.6-0.9c1.9-1.7,4-2.8,6.5-3c0.2,0,0.4-0.3,0.8-0.6
	c-0.2-0.5-0.4-1-0.6-1.4c-0.3-0.1-0.6-0.2-0.8-0.2c-0.4,0-0.7,0.1-1.1,0.2c-1.2,0.3-2.4,0.8-3.6,0.8c-2.8,0.1-5.2,1.5-7.7,2.4
	c-1.8,0.6-3.8,1-5.9,0.3c0.3-0.4,0.5-0.7,0.6-1c0.1-0.2,0.3-0.5,0.5-0.8c-0.4-0.4-0.8-0.8-1.3-1.2c0.4-0.3,0.8-0.5,1.1-0.8
	c0.2-0.2,0.3-0.6,0.2-0.7c-0.1-0.2-0.5-0.4-0.7-0.3c-1.3,0.3-2.5,1-3.9,0.6c-0.5-0.9-0.4-1.6,0.5-2.1c1.5-0.9,2.8-1.9,3.1-3.8
	c0.1-0.4,0.6-0.7,1-1c0.7-0.5,1.4-0.9,2.1-1.3c-0.4-1.7-0.4-1.7,1.3-3.1c0.2-1-0.2-2.2,0.8-3.4c1.1-0.2,2.3,1.6,3.6,0
	c0.2-0.7-0.2-1.3-0.5-2c-0.1-0.3-0.5-0.7-0.8-0.7c-1.5-0.2-3-0.4-4.5-0.5c-1.6-0.1-3.1,0.6-4.6,1.1c-0.3-0.9-0.6-1.8-0.9-2.8
	c-0.6-0.3-1.3-0.6-1.9-0.9c0-0.2-0.1-0.3-0.1-0.4c1.1-1.2,0.7-3.5,3.1-3.5c0.6,0.3,1.2,0.8,1.9,0.8c0.4,0,0.9-0.6,1.3-0.9
	c0.2-0.2,0.4-0.3,0.5-0.5c-0.3-0.3-0.6-0.2-0.9,0.1c-0.4,0.1-0.7,0.1-1.2,0.2c0.8-1.1,0.9-1.3,1.3-1.4c1.9-0.3,3.4-1.4,4.5-2.7
	c2.4-2.8,5.7-4,9.1-4.8c0.8-0.2,1.5-0.2,2-0.9c0.1-0.1,0.3-0.3,0.5-0.3c2.1,0.2,3.3-1.6,5-2.2c0.7-0.3,1.7-0.5,1.6-1.7
	c0.9-0.6,1.6-1.6,2.9-1.4c0.8,0.1,1.5,0.1,2.1-0.5c0.2-0.2,0.7-0.3,1-0.3c2.2,0,4-0.7,5.3-2.7c0.7-1.1,1.5-2.2,2.2-3.2
	c1.3-0.5,2.2,0.3,3.2,1C59.8,193.3,60.3,192,60.3,190.4c1.8-0.9,3.7-1.6,5.7-0.8c2.4-1,4-2.7,5.8-4.2c0.8-0.7,0.6-1.2,0.1-1.9
	c-0.7,0-1.3-0.2-2-0.1c-1.1,0.3-2-0.4-3-0.3c-1.8-1.2-3.2-0.4-4.4,1c-0.4,0.4-0.9,0.7-1.2,1.2c-0.3,0.3-0.5,0.8-0.6,1.2
	C60.5,187.8,60.4,189.1,60.3,190.4 M450.4,218.3c0.1-0.1,0.2-0.3,0.3-0.4c-0.2,0.1-0.3,0.2-0.5,0.3c0,0.1-0.1,0.2-0.1,0.3
	C450.2,218.4,450.3,218.4,450.4,218.3 M448,224.5c0,0,0,0.1,0,0.2C448,224.6,448,224.6,448,224.5c0.4-0.9,0.8-1.8,0.9-2.7
	c-1.2-0.7-2-0.2-2.7,0.3c-0.8,0.5-1.2,1.1-1.1,2.1C445.9,224.9,447,224.4,448,224.5 M300,20.2c1.8-0.5,3.5-1.2,5-2.5
	c0.6-0.5,1.3-1.1,2.1-1.4c0.8-0.4,1.7-0.5,2.7-0.7c-0.2-0.5-0.4-0.9-0.7-1.4c-1.1,0.2-2.2,0.3-3.3,0.6c-1.6,0.4-2.6,1.8-3.9,2.7
	C301,18.2,300.4,19.1,300,20.2c-0.2,0.6-0.5,1.2-0.7,1.8c0,0.1,0.2,0.3,0.3,0.4c0,0,0.2,0,0.3,0c0.6-0.2,0.9-0.8,0.7-1.3
	C300.4,20.8,300.2,20.5,300,20.2 M59,226.1l0.2,0.1c-0.9,0.5-1.7,1.3-2.6,1.5c-1.7,0.4-2.9,1.7-4.3,2.5c-0.9,0.6-0.9,1.3,0.1,2.7
	c1.5-0.6,3.1-1.1,4.7-1.7c1.7-0.7,3.4-1,5.2,0c0.1,0.1,0.3-0.1,0.7-0.2c0-0.7-0.1-1.5-0.1-2.3c0.9-0.7,2-1.4,2.8-2.3
	c0.9-1.1,2.7-0.4,3.3-1.8c-0.4-1.5-0.4-1.5-3.1-1.6c0.1-0.4,0.1-0.9,0.3-1.2c0.3-0.3,0.8-0.4,1.2-0.7c0.6-0.5,0.4-1.6-0.3-1.9
	c-0.7-0.3-1.5-0.3-2.2,0.2c-0.6,0.4-1.2,0.9-1.8,1.4c-0.9,0.9-1.7,1.6-3,2c-1.1,0.3-2,1.2-3,1.8C57.3,225.9,58.3,225.7,59,226.1
	 M358.2,101.7L358.2,101.7c-0.1,0.4-0.2,0.8-0.8,1c-1.5,0.4-2.1,1.7-2.6,3.2c0.5,0.1,0.9,0.3,1.2,0.2c0.5-0.1,1.1-0.4,1.5-0.7
	c1.9-1.9,4-3.5,6.3-4.6c0.3-0.2,0.6-0.4,0.9-0.7c1.4-1.4,2.9-2.8,4.1-4.3c1-1.2,2.2-2.1,3.7-2.5c0.9-0.2,1.6-0.6,2.1-1.3
	c0.8-1.2,1.7-1.9,3.1-2.1c1.5,1.4,1.5,1.4,3.5,1c1.7-0.3,2.6-1.3,2.1-3c-0.1-0.3-0.2-0.5-0.3-0.7c-1.2-0.3-2.3-0.5-3.3-0.8
	c-1.1-0.4-2-0.2-2.8,0.7c-0.6,0.7-1.1,1.5-2.3,1.5c-0.4,0-0.8,0.5-1.1,0.8c-2.4,2.8-5.4,4.8-8.7,6.7c-1.5-1.1-2.8-1.2-3.9,0.4
	c-0.2,0.2-0.4,0.5-0.7,0.5c-1.4,0.3-2,1.7-3,2.5c-0.4,0.4-0.6,1.1-0.9,1.8C357.2,101.5,357.7,101.6,358.2,101.7 M430.5,209.9
	L430.5,209.9c0,0.7,0.1,1.4,0,2.2c0,0.7-0.3,1.3-0.5,2.2c1.7-0.6,2.7-1.7,3.6-2.7c1-0.2,1.9-0.3,2.8-0.4c0.9-2,1.8-3.7,4-4.2
	c0.9-0.2,1.4-0.9,1.5-1.8c0.1-0.6,0.3-1.1,0.4-1.6l-0.1,0.1c0.9-0.4,1.7-0.7,2.6-1.2c1.1-0.6,1.7-1.5,1.6-2.8
	c-0.1-0.8-0.1-1.5-0.1-2.3c0.1-1-0.9-1.1-1.3-1.6c0.8-1.1,1.5-2.2,2.8-2.6c0.9-0.3,0.9-1.1,1.1-1.8c0.1-0.4-0.3-0.8-0.4-1.3
	c-0.6,0.2-1.1,0.3-1.5,0.6c-0.4,0.2-0.8,0.5-1.1,0.8c-2,1.5-3.7,3.2-5.4,4.9c-1.3,1.3-2.6,2.5-4,3.6c-1.1,0.9-2.4,1.5-2.9,3
	c-0.1,0.3-0.6,0.4-0.9,0.6c-0.4,0.3-0.8,0.5-1.1,0.8c-2.2,2.1-4.4,4.1-6.7,6.3c0.4,0.3,0.7,0.7,0.9,0.7c1.2-0.4,2.3-0.8,3.4-1.3
	C429.6,209.9,430,209.7,430.5,209.9 M146.3,389.1c-0.1,0.9-0.1,1.5-0.2,2.1c1.7,1.2,3.4,1.6,5.2,0.8c2-1,4.1-1.8,5.8-3.4
	c0.1-0.1,0.2-0.3,0.3-0.6c-0.1-0.3-0.2-0.8-0.3-1.2c-0.6-0.2-1.1-0.4-1.7-0.6c0.4-1.2,0.7-2.4,1-3.6c0.2-0.8,0-1.5-1.2-1.8
	c-0.6,0.5-1.4,1-2.1,1.5c-1.4,1.1-1.5,1.1-3.1-0.1v-1.7c-2.8,0.7-5.5,1.2-7.7,3.1c-0.6-0.8-1-1.5-1.6-2c-2.2-1.7-6.6-1.1-8.4,0.6
	c-0.8,0.7-1.1,1.5-0.7,2.6c0.9,0.4,1.8,1,2.7,1.1c1.1,0.1,2.2-0.3,3.4-0.5c-0.5,1.6-2.9,1.4-2.8,3.3c1.6,0.8,1.6,0.8,2.9,0.3
	c1.6-0.5,3.1-1.2,4.8-1.5C143.7,389.7,143.9,389.7,146.3,389.1 M49.6,249.4c1.5-0.7,3.2-0.6,4.1-2.2c0.1-0.1,0.3-0.2,0.5-0.3
	c1.5-0.7,3.1-1.3,4.6-2c0.8-0.4,1.5-0.9,2.2-1.3c0.6-0.3,0.6-0.9,0.6-1.5c0-0.1,0.3-0.2,0.5-0.5c0.6,0.1,1.3,0.2,2.2,0.3
	c0.3-0.5,0.7-1,1-1.4c0.7,0,1.4,0.1,2,0c0.6-0.1,1.3-0.2,1.9-0.6c0.4-0.3,0.5-1,0.9-1.3c1.2-0.9,2.3-1.9,4-2.1
	c1.1-0.1,2.2-0.4,3.3-0.6c0.4-1.1,0.7-2.1,1-3.1c0.3-1-0.6-2.1-1.6-1.7c-1.2,0.4-2.6,0.3-3.6,1.3c-0.7,0.6-1.6,1.1-2.4,1.4
	c-1.1,0.4-1.9,1.3-2.8,1.8c-0.9,0.6-2.1,0.7-3.2,1.1c-0.5,0.2-1,0.6-1.4,1c-1,0.9-2.2,1.5-3.5,1.9c-1,0.3-1.9,0.7-2.7,1.5
	c-1,1.1-2.7,0.9-3.6,2.1c-0.1,0.2-0.5,0.1-0.8,0.3c-2,0.9-3.9,1.8-5.9,2.7c-1,0.4-1.4,1.2-1.3,2.2C46.9,248.5,48.2,248.9,49.6,249.4
	 M88.6,175.7c-0.4-1.4-0.8-2.5-1.2-3.7c-1.6,0-3,0.4-4.3,1.2c-1.4,0.8-3.1,1.4-4.7,1.8c-1.8,0.5-3.2,1.5-4.2,3
	c-0.4,0.6-0.9,1.2-1.3,1.8c0.4,0.9,0.8,1.7,1.1,2.5c0.8,0.3,1.5,0.5,2.2,0.7c0.4,0.1,0.9,0.1,1.3,0c1.6-0.4,3.4-0.5,4.8-1.4
	C85,180.3,87.4,178.5,88.6,175.7 M284.3,29c-1.7,0.2-3,0.8-4.1,2c-0.7,0.7-1.5,1.4-2.2,2.1c-1.3,1.1-2.7,2.1-4,3.2
	c-0.3,0.3-0.5,0.8-0.5,1.2c0.1,0.6,0.7,0.5,1.2,0.4c0.6-0.1,1.1-0.3,1.7-0.3c1.7,0,3.1-0.7,4.5-1.6c1.8-1.2,3.1-2.9,5-4.1
	c1.1-0.7,1-1.5,0-2.2C285.3,29.3,284.7,29.1,284.3,29 M431.4,187.3c1,0.5,1.6,0.2,2.1-0.3c2.6-2.2,5.1-4.4,7.6-6.7
	c0.9-0.8,1.6-1.8,2.3-2.8c0.2-0.4,0.2-1-0.3-1.2c-0.3-0.1-0.8-0.1-1.1,0.1c-1.4,1.1-2.8,2.2-4.4,3c-0.8,0.4-1.5,0.8-2.1,1.3
	c-0.8,0.6-1.3,1.3-0.9,2.4c0.1,0.2,0,0.5,0,0.7C433.5,185,432.5,186.1,431.4,187.3 M179.4,390.5c-0.3-0.3-0.4-0.7-0.7-0.8
	c-0.5-0.2-1.1-0.3-1.6-0.3c-1.1,0.1-2.2,0.4-3.3,0.7c-1.1,0.2-2.2,0.4-3.3,0.7c-1.3,0.4-2.4,1.2-3.2,2.2c-0.2,0.2-0.2,0.8,0,1.1
	c0.1,0.3,0.6,0.5,0.9,0.5c0.5,0,0.9-0.2,1.4-0.3c1.9-0.5,3.7-1.1,5.8-1.2c1.1,0,2.3-0.8,3.4-1.4C178.9,391.6,179.1,391,179.4,390.5
	 M99,387.5c-0.4-0.3-0.6-0.5-0.7-0.5c-2.5,0-4.3,1.5-6.3,2.5c-1.4,0.7-2.5,1.8-3.4,3c0.7,1,1.6,1.1,2.6,0.7c2-1,4-1.9,5.5-3.6
	c0.3-0.3,0.8-0.5,1.1-0.8C98.1,388.4,98.5,388,99,387.5 M426.8,165.3c-0.8-0.1-1.7-0.2-2.4,0.3c-0.9,0.7-1.9,1.3-2.3,2.4
	c-0.5,1.3-1,2.6-1.5,3.9c1.3,0.5,2.2,0.3,2.8-0.9c0.3-0.6,0.6-1.1,0.8-1.6C427.2,168.2,427.3,168.2,426.8,165.3 M46.2,222.2
	c-1.9,0-3.3-0.7-4.6,0.1c-1.7,1-3.4,2-5,3.1c-0.1,0.1,0.1,0.8,0.3,0.9c0.3,0.2,0.7,0.1,1.1,0c1.7-0.4,3.4-0.9,5.1-1.4
	c0.3-0.1,0.5-0.2,0.7-0.4C44.4,223.9,45.1,223.2,46.2,222.2 M424.8,109.5c-1.2,0.4-2,0.8-2.7,0.8c-1.6,0.1-2.8,0.8-3.8,2v1.9
	c1.4-0.2,2.7-0.4,3.9-0.7c1.2-0.3,2.2-1,2.3-2.5C424.5,110.7,424.6,110.4,424.8,109.5 M380.7,69.1c-1,0.2-1.9,0.4-2.9,0.7
	c-0.3,0.1-0.6,0.4-0.9,0.6c-0.7,0.7-1,1.6-0.9,2.5c0,0.2,0.3,0.4,0.5,0.6c0.9-0.2,1.7-0.3,2.5-0.5C382,72.3,382.1,72.1,380.7,69.1
	 M468.6,221.3c-2.4,0.3-3.7,2.5-3,4.9c0.1,0.2,0.3,0.5,0.5,0.5c0.2,0,0.7-0.1,0.7-0.2c0.5-1,1.2-1.5,2.3-1.8c0.4-0.1,0.7-0.6,0.9-1
	c0.3-0.6,0.2-1.1-0.3-1.5C469.3,221.8,468.8,221.5,468.6,221.3 M403.9,103.5c0.4,0.5-0.1,1.3,0.7,1.8c0.8,0.5,1.5,0.2,2.2-0.1
	c0.7-0.3,1.1-1,1.8-1.4c1.2-0.7,1.2-1.5,0.6-2.6C407.2,101.1,405.5,101.7,403.9,103.5 M365.3,73.7c1,0.8,1.9,0.4,2.7-0.1
	c1.2-0.7,2.3-1.7,3.4-2.5c0.4-0.3,0.6-0.8,0.3-1.2c-0.2-0.2-0.6-0.3-1-0.3c-0.3,0-0.6,0.1-0.8,0.2c-1.4,0.9-2.9,1.8-4.3,2.7
	C365.5,72.8,365.4,73.3,365.3,73.7 M164.6,396.5c0.3-0.3,0.8-0.7,1.3-1.1c-0.3-0.6-0.5-1.1-0.7-1.7c-0.9,0-1.8-0.1-2.6-0.1
	c-1.3,0-2,0.9-2.4,2c-0.1,0.3,0.2,0.7,0.2,0.9H164.6z M398.7,111.1c2.7-0.1,2.9-1.2,4.7-3.5c0.3-0.4,0.3-0.9-0.2-1.3
	c-1.3,0.5-2.7,1-3.8,1.9C398.5,108.9,398.2,109.8,398.7,111.1 M417,112.8c-0.4-0.9-1-1.4-1.8-1.2c-1.2,0.4-2.2,1.1-2.4,2.5
	c-0.1,0.4,0.3,1,0.7,1C415.1,115,416.5,114.7,417,112.8 M378.9,100c-0.3-0.2-0.6-0.5-0.9-0.5c-2,0.1-3.1,1.5-4.2,2.9
	c-0.1,0.1,0,0.6,0.1,0.7c0.2,0.2,0.6,0.3,0.7,0.2c1.2-0.7,2.4-1.4,3.5-2.2C378.6,100.9,378.7,100.5,378.9,100 M457.2,186.8
	c1.1,0.3,1.9,0.1,2.4-0.5c0.6-0.7,1.1-1.5,1.5-2.3c0.2-0.4-0.3-1-0.8-1c-0.3,0-0.6,0-0.8,0.1c-0.8,0.7-1.5,1.4-2.2,2.2
	C457.1,185.6,457.2,186.2,457.2,186.8 M42.6,215.6c0.5,0.3,0.8,0.4,1,0.6c0.1,0.1-0.2,0.5-0.3,0.7c0.1,0.1,0.2,0.1,0.3,0.2
	c0.6-0.6,1.1-1.1,1.7-1.7c1.1,0.1,1.1,0.1,1.1-0.8c0-0.4,0.2-0.9,0.3-1.4h-2.2C43.8,214,43.2,214.7,42.6,215.6 M41.2,194.3
	c1.8,0.1,3.1-0.5,4.2-1.5c0.2-0.2,0.4-0.8,0.2-1c-0.2-0.3-0.8-0.8-1.1-0.7C43,191.5,41.9,192.5,41.2,194.3 M455.6,213.6
	c-0.6,0.6-1.1,1-1.4,1.6c-0.2,0.2-0.2,0.6-0.3,1c0.6,0.1,1.1,0.2,1.5,0.2c0.4,0,0.8,0,1.1-0.1c0.4-0.2,0.8-0.4,1.1-0.7
	c0.4-0.4,0.3-1.2-0.2-1.4C456.8,214,456.3,213.8,455.6,213.6 M351,53.8c0.9-0.1,1.8-0.1,2.6-0.2c0.6-0.1,0.9-0.7,0.6-1.3
	c-0.1-0.3-0.4-0.7-0.6-0.9c-0.6-0.5-1.4-0.6-2.1-0.1C350.7,51.8,350.5,52.6,351,53.8 M353,107.1c-0.7,0.2-1.4,0.2-1.8,0.6
	c-0.6,0.6-0.9,1.4-1.2,2.1c-0.1,0.3,0.4,0.8,0.7,1.1c0.3,0.3,0.7,0.1,0.9-0.3c0.2-0.5,0.6-0.6,1-0.9
	C353.4,109.1,353.4,108.2,353,107.1 M38.6,221.3c-0.4-0.8-1-1.4-1.9-1.3c-0.6,0-1.4-0.3-1.8,0.4c-0.6,0.8,0.2,1.4,0.6,1.9
	c0.1,0.1,0.3,0.2,0.5,0.2C36.9,222.4,38,222.3,38.6,221.3 M374.7,74.8c-0.8,0-1.3-0.2-1.9-0.1c-0.8,0.1-1,0.8-1,1.5
	c0,0.3,0.2,0.8,0.4,0.9c0.5,0.3,1.5,0.1,1.8-0.3C374.3,76.2,374.4,75.5,374.7,74.8 M447.7,239.3c2.2,0,3.3-0.8,4.1-2
	c0.1-0.2,0-0.7-0.2-1c-0.2-0.4-0.7-0.4-1-0.1C449.8,237,449,237.9,447.7,239.3 M346.6,114.6c0.2,0.1,0.5,0.5,0.8,0.5
	c0.5-0.1,1.1-0.3,1.5-0.6c0.4-0.2,0.4-1,0.1-1.5c-0.3-0.4-0.7-0.6-1.2-0.3C347,113,346.6,113.6,346.6,114.6 M367.3,102.4
	c0-0.5-0.5-0.8-0.9-0.7c-1,0.3-1.4,1.1-1.8,1.9c-0.1,0.1,0.2,0.6,0.4,0.6C366.1,104.5,367.2,103.5,367.3,102.4 M138.7,391.3
	c0.3,0.4,0.4,0.8,0.7,0.9c0.5,0.1,1.1,0.2,1.6,0c1-0.4,1.2-1,0.9-2.2C140.7,390.2,139.7,390.4,138.7,391.3 M141.5,406.7
	c0-1-0.6-1.1-1.1-1.2c-0.5-0.2-0.8,0-1.2,0.5c-0.2,0.2-0.7,0.1-0.9,0.3c-0.2,0.4-0.2,0.9,0.3,1.3C139.5,407.3,140.4,407,141.5,406.7
	 M449.2,235.2c1.3,0.1,2.1-0.4,2.7-1.2c0.3-0.4,0.7-0.9,0.3-1.5C450.5,233.1,450.5,233.1,449.2,235.2 M420.7,193.8
	c1.6,1.1,2,1.2,2.7,0.3c0.3-0.5,0-1.2-0.5-1.3C422,192.6,421.4,193,420.7,193.8 M379.7,106.9c-1.8-0.1-2.4,0.3-2.8,1.7
	c-0.1,0.2,0.1,0.7,0.2,0.7c0.3,0.1,0.8,0,0.9-0.1C378.7,108.5,379.2,107.7,379.7,106.9 M474.2,215.8c1.1-0.2,1.7-1.1,1.6-2.1
	c0-0.4-0.7-0.7-1.1-0.4c-0.7,0.4-1,1.1-1.1,1.8C473.7,215.3,474.1,215.6,474.2,215.8 M175.3,403.4c0.7-0.6,0.7-1.2,0.2-1.8
	c-0.5-0.5-1-0.2-1.5,0.2c-0.2,0.2-0.2,0.4-0.4,0.7C174.2,402.9,174.7,403.2,175.3,403.4 M42.1,238.8c-0.7-0.2-1.1-0.4-1.6-0.4
	c-0.5,0-0.9,0.3-1,0.8c-0.1,0.2-0.1,0.6,0.1,0.8c0.3,0.4,0.9,0.4,1.2,0.1C41.3,239.8,41.6,239.4,42.1,238.8 M386.5,58.5
	c-0.7,0-1.4,0.6-1.3,1.2c0,0.2,0.3,0.5,0.5,0.5c0.6,0.1,1.2-0.4,1.2-1.1C386.9,58.8,386.7,58.7,386.5,58.5 M430.8,163.9
	c-0.7-0.6-1.3-0.6-1.8,0c-0.3,0.3-0.4,0.7-0.1,1c0.2,0.2,0.8,0.4,1,0.2C430.2,164.8,430.5,164.4,430.8,163.9 M38,252.4
	c-0.1-0.1-0.2-0.4-0.3-0.4c-0.3-0.1-0.5-0.1-0.8,0c-0.4,0.1-1,0.1-1,0.7c0,0.2,0.1,0.5,0.2,0.5c0.4,0,0.9,0,1.3,0
	c0.2,0,0.3-0.2,0.4-0.3C37.9,252.7,37.9,252.5,38,252.4 M450.9,220.8c0.8-0.5,1.6-0.7,1.5-1.6C451,219.1,451,219.1,450.9,220.8
	 M288.7,30.2c0.2-0.7,0.4-1.2,0.6-1.6c-0.9-0.5-1.3,0-1.8,0.6C287.8,29.5,288.2,29.8,288.7,30.2 M401.5,85.8
	c0.2,0.1,0.4,0.2,0.6,0.3c0.1-0.2,0.2-0.6,0.4-0.7c0.4-0.3,0.7-0.6,0.5-1.1c0-0.1-0.3-0.3-0.4-0.2c-0.4,0.2-0.8,0.4-1.1,0.7
	C401.3,85,401.5,85.5,401.5,85.8 M344.7,312.4c0.6,0.3,1.1,0.3,1.5-0.2c0.2-0.3,0.6-0.7,0.1-1.2
	C345.5,311.2,344.8,311.4,344.7,312.4 M20.8,214.1c1.1,0.5,1.5-0.2,2.3-0.8C22.2,213.2,21.5,213.3,20.8,214.1 M440.1,232.2
	c0.1,0.1,0.3,0.3,0.4,0.3c0.5,0.1,0.9,0,1-0.6c0-0.2-0.2-0.5-0.3-0.6c-0.5-0.1-0.8,0.1-1,0.6C440.1,232,440.1,232.1,440.1,232.2
	 M32.7,264.4c-0.2-0.2-0.4-0.4-0.5-0.4c-0.2,0-0.3,0.2-0.4,0.3c0,0.1,0.2,0.4,0.2,0.3C32.2,264.6,32.4,264.5,32.7,264.4 M43.6,250.2
	c0.2-0.3,0.4-0.5,0.4-0.7c0-0.1-0.3-0.3-0.3-0.3c-0.2,0.1-0.4,0.3-0.6,0.4C43.3,249.8,43.4,250,43.6,250.2 M357.4,87.3
	c-0.4,0.6-0.7,0.8-0.8,1.2c-0.1,0.2,0.2,0.4,0.3,0.6c0.2-0.1,0.6-0.2,0.6-0.4C357.6,88.4,357.5,88,357.4,87.3 M154.1,398.2
	c-0.1-0.2-0.1-0.3-0.2-0.5c-0.1,0.1-0.4,0.2-0.4,0.3c0,0.2,0.2,0.4,0.3,0.6C153.9,398.5,154,398.4,154.1,398.2 M381.5,80.5
	c-0.3-0.2-0.5-0.4-0.6-0.4c-0.2,0.1-0.5,0.2-0.5,0.4c-0.1,0.2,0,0.6,0.4,0.4C381.1,80.9,381.3,80.7,381.5,80.5 M434.3,222.3
	c-0.1-0.1-0.1-0.3-0.2-0.4c-0.1,0.1-0.4,0.2-0.4,0.3c0,0.2,0.2,0.3,0.3,0.5C434.1,222.6,434.2,222.4,434.3,222.3 M152.2,397.2
	c0.1,0,0.1-0.1,0.2-0.1c-0.1-0.1-0.2-0.2-0.3-0.4c-0.1,0-0.2,0.1-0.2,0.1C152,397,152.1,397.1,152.2,397.2 M388.9,56.4l-0.2,0.1
	l0.2,0.1L388.9,56.4z M49.8,235.6c0.1,0,0.1,0,0.2,0.1c0-0.1-0.1-0.2-0.1-0.2L49.8,235.6z M76.9,173c-0.2-0.1-0.3-0.2-0.5-0.2
	c0,0-0.2,0.1-0.2,0.2c0,0.1,0.1,0.2,0.2,0.2C76.6,173.2,76.7,173.1,76.9,173 M46.8,237.3c-0.1,0-0.1-0.1-0.2-0.1
	c-0.1,0-0.1,0.1-0.2,0.1c0.1,0,0.1,0.1,0.2,0.1C46.6,237.4,46.7,237.4,46.8,237.3 M45.2,237.9c-0.2,0-0.3-0.1-0.4-0.1
	c0,0.1,0,0.2,0.1,0.2C45,238,45,238,45.2,237.9 M354.6,90.5c-0.1-0.1-0.2-0.1-0.4-0.2c0,0-0.2,0.1-0.2,0.2c0.1,0.1,0.2,0.2,0.3,0.3
	C354.4,90.7,354.5,90.6,354.6,90.5 M311.4,14.3c0-0.1,0.1-0.1,0.1-0.2c0,0-0.1,0-0.1-0.1c0,0.1-0.1,0.1-0.1,0.2
	C311.2,14.2,311.3,14.3,311.4,14.3 M76.1,174.7c-0.1-0.1-0.1-0.2-0.2-0.2c-0.1,0-0.1,0.1-0.2,0.2c0.1,0.1,0.2,0.1,0.3,0.2
	C76,174.8,76,174.8,76.1,174.7 M73.6,184l0.1-0.1l-0.1,0L73.6,184z"/>
</svg>
