<svg version="1.1" id="Layer_1" xmlns="http://www.w3.org/2000/svg" xmlns:xlink="http://www.w3.org/1999/xlink" x="0px" y="0px"
	 viewBox="0 0 600 600" style="enable-background:new 0 0 600 600;" xml:space="preserve">
<style type="text/css">
	.round-pattern-st0{clip-path:url(#ROUND_PATTERN_SVGID_2_);fill:currentcolor;}
</style>
<g>
	<defs>
		<rect id="ROUND_PATTERN_SVGID_1_" x="5.3" y="15.5" width="589.7" height="570.9"/>
	</defs>
	<clipPath id="ROUND_PATTERN_SVGID_2_">
		<use xlink:href="#ROUND_PATTERN_SVGID_1_" style="overflow:visible;"/>
	</clipPath>
	<path class="round-pattern-st0" d="M590.8,351c-2.8,8.4-4.4,18-8.6,25.8c-0.4-4.3,1.2-8.6,2.2-12.8c0.7-3.3,1.1-7.9,2.4-10.5
		c-0.4-3.7,0.7-9.3,0.9-13.6c0.3-4.6,0-8.9,2.2-13c2.1-4,1-8.4,1.7-12.8c0.7-4.6,2.3-8.9,3.2-13.5H579c0-3.8-0.1-7.7-0.2-11.5
		c-0.1-1.9-0.2-3.8-0.3-5.7c-0.1-1-0.5-2.9-0.2-3.7c0.1-0.6,1.3-1,1.3-1.6c0.2-2.9-1.6-5.5-1.6-8.6c-0.1-4-0.9-7.9-1.1-11.9
		c-0.2-3.3,1.4-5.3,0.3-8.3c-1.1-3.1-1.4-2.6,1.1-4.7c1-0.9,1.7,0,1.6-1.7c-0.1-1.9-1.4-0.5-2.1-1.6c-1.4-2.4,2.1-1.6,2.3-4
		c0.2-2.5-3.7-0.7-4.8-2.7c-0.3-0.7,0.1-2,0.2-2.7c0.2-1,2.4-3.6,2.4-4.1c0-1.6-3.3-1.8-3.4-4.2c-0.1-1.2,0.9-2.3,1.3-3.3
		c0.8-1.9,1.1-3.7,1.1-5.8c-0.3-8.2-3.8-17.3-6.3-25.1c-2.6-8.5-5.7-16.9-9.3-25c-2.7-6.1-5.8-11.9-9.2-17.6c-1.8-3-3.4-6.4-6.1-8.8
		c-0.9,4.4,1.1,9.3,1.9,13.7c-1.2-4.3-2.3-1.9-5.2-1.2c-3.3,0.8-3.5-1.9-4.9-4.8c-2.1-4.2-4.3-8.4-6.6-12.6c-1.6-2.8-3.4-5.5-5-8.2
		c-1.1-1.8-1.4-4.6,1.4-3.3c2.6,1.2,4.9,5.4,6.6,7.5c2-1.9-2.2-7.4-4.1-8.4c-3.1-1.7-8.7-3-9.8-6.8c4.2,1.7,5.1,4.6,9.1,0.6
		c-2.3-2-4.7-3.6-6.1-6.4c-2.7-5.4-4.4-11.3-7.2-16.5c-3.4-6.4-13.6-12.3-19.6-16.1c0.9,1.8,1.8,3.6,2.6,5.4c2.8-1.5,2.2,3,1.8,4.3
		c-3.7-3.4-7.7-4.9-8.7-10.1c-0.6-2.8-0.3-2.9-3.2-4.3c-2.8-1.4-2.7-1.1-2.9-4.2c1.8,0.4,3.5,0.9,5.2,1.4c0.2-2.4,1.5-6.2-1.3-7.5
		c-1.5-0.7-4.2,0.8-5.4-0.2c-1-0.9-0.2-2.8-0.1-3.9c0.2-3.5-0.6-6.2-2.2-9.3c-0.5,1.3-0.9,2.7-1.6,3.9c-0.5,1-2.8,2.7-3,3.6
		c-0.5,2.2,2.6,4,2.4,6.3c-0.4,3.3-2.1,2-4.1,1c-2-0.9-4.4-1.2-6.1-2.6c-2.2-1.6-2.9-4.4-4.9-6.3c-2.8-2.5-6.1-4.6-9.1-6.7
		c-2.2-1.6-16.4-12.7-18-9.2c-0.8,1.9,3.1,3.3,4.4,4.3c2.7,2.3,4.8,5.3,7.5,7.6c5.5,4.7,11.4,8.9,17,13.6c2.7,2.3,5.3,4.6,7.7,7.1
		c1.2,1.3,6.1,5.3,6,7.1c-0.2,3.4-4.1,0.6-5.4-0.3c-2.3-1.5-4.5-3.8-7.5-3c0.3,0.8,0.6,1.6,0.9,2.5c-4-3.1-8.1-6.1-12.3-9
		c4.2,1.6,3.2-1.9,1-4c-2.2-2.2-5.4-3-8.4-3.4c0.7,1.5,1.6,3,2.8,4.2c-2.2-1.5-4.4-2.9-6.7-4.3c1.2,0,2.3-0.1,3.4-0.1
		c-2.8-1-2.6-4.4-5.4-6.1c-0.7-0.4-7.2-2.9-7.4-1.9c-0.2,1.2,1.7,2,1.6,3.4c-3.7-2.2-7.6-4.2-11.4-6.3c-3.5-1.9-8.6-3.3-11.7-5.8
		c-2.1-1.7-3-3.6-6-4c-0.3,0.3-0.7,0.6-1,0.8c-0.9-0.4-1.9-0.8-2.8-1.2c-2.8-1.1-2.8-1.3-3.7-4.1c-1.3,2.1-0.4,2-3,1.4
		c-1.5-0.3-3-1.2-4.5-1.7c-3.3-1.2-6.7-2.4-10.1-3.5c1.2-0.3,1.2-0.7-0.2-1.1c0,0.3-0.1,0.7-0.1,1c-20.6-6.7-42.2-11.1-63.8-12.9
		c-10.6-0.9-21.3-1.1-31.9-2c-5.1-0.4-10-0.2-15.1,0c-1.4,0.1-13.3,0.3-11.7,3.1c-1.9,0.2-3.7,0.5-5.6,0.7c1.2-2.6-5.2-2.8-1.5,0.2
		c-18.8,2.8-37.3,7.5-55.1,14c-2.2,0.8-4.5,1.2-6.5,1.7c-0.7-0.5-1.2-0.5-1.6,0.2c-0.3,0.3-0.6,0.7-0.7,1.1
		c-3.4,1.8-7.9,3.5-11.7,5.3c-3.7,1.7-5.9,2.8-9.7,3.1c-2.6,0.3-4.2,0.2-6.3,1.8c-1.7,1.3-3.3,3.4-4.7,5c0.7-0.2,1.4-0.4,2.1-0.6
		c-5.3,2.9-10.4,6-15.4,9.1c1.5-1.4,2.6-2.9,3.8-4.5c-5.7-0.5-12.3,4.2-17.2,7c-1.3,0.7-3,1.4-4.2,2.3c-2.8,2.2-2,5.6,1.7,6.1
		c-1.2,0.8-2.3,1.7-3.5,2.5c-1.3,0.9-0.6-0.4-1.4,0.2c-1,0.7,0.2,0.6,0.3,0.7c-30.8,23.5-56.6,53.2-75.6,86.9c0.1-2.1-2.8,2.4-3,2.7
		c-1.2,1.8-2.1,3.8-3.1,5.7c-2.2,4.1-4.4,8.2-6.3,12.4c1-0.8,1.9-1.6,2.9-2.4c-0.6,1.3-1.2,2.6-1.8,4c-0.2-0.6-0.5-1.2-0.9-1.6
		c-1.2,1.5-2.8,3-3.4,4.9c-0.7,2.2,0.6,3.6,0.5,5.5c-0.2,2.6-2.3,5.8-3.2,8.2c-0.5,1.2-0.8,2.5-1.3,3.7c-0.4,0.9-1.5,2-1.9,2.8
		c0.1-0.3,0.2,1.9,0.1,2.1c-0.2,1.9-1.6,3.3-2.1,5c-0.7,2.5-1.1,5.3-1.9,7.9c-1.1-1.3-1.7-0.8-3.2-0.3c1,1.3,1.2,1.8,2.9,1.2
		c-1.6,5.7-3,11.4-4.2,17.1c-0.2,0.9-0.9,7.5-1.5,7.7c-1.5,0.6-3-2.6-3.5-3.5c-3.5,7-3.7,17.2-4.5,24.9c-0.9,9-1.7,18.1-1.6,27.2
		c0,8.8-0.3,17.6-0.1,26.3c0,2.3,0.4,4.2,1.1,6.4c0.5,1.5,1.4,2.6,0.9,4.2c-0.9,2.8-2.8,0.5-2.8,4.2c-0.2,12,2.4,25.1,5.1,36.8
		c1.2,5.7,3.9,10,6.3,15.3c0.4,0.8,1.4,2.3,1.1,3.2c-0.4,1.3-2,0.8-2.1,2.6c0,0.9,0.9,1.8,1.2,2.6c0.6,1.7,0.5,3.7,0.8,5.4
		c0.6-2,1.2-3.9,1.9-5.8c3,3.7,5.1,6.7,7.1,10.8c1.6,3.1,3.7,9.8,7.1,10c-0.3-0.6-0.2-1.4-0.5-2.1c2.6,1.3,2.2,5.3,4,7.7
		c1,1.4,2.6,1.8,3.6,3c1,1.2,1.7,3.3,2.5,4.8c3.2,6.1,6.6,12.1,10.2,17.9c7.2,11.6,15.3,22.7,24,33.2c17.7,21.1,38.5,39.6,61.6,54.7
		c23.1,15.2,48.4,27,74.9,34.9c7.2,2.1,13.9,5.4,21.3,7.2c8.1,2,16.4,3,24.6,4.1c17.7,2.3,35.9,2.8,53.6,1.4c13-1,25.8-2.6,38.6-4.8
		c5.1-0.9,10.2-1.9,15.2-3c3.4-0.8,7.2-2.4,10.7-2.5c1,0,1.9,0,2.8,0.5c1.2,0.7,1.6,3.5,2.4,3.9c1.6,0.8,2.1-1.4,3.3-1.6
		c1-0.3,4,1.4,3.1,1.8c0.1,0,0.2,0,0.4,0c1.1-1.4,3.5-2.8,5.1-4c-0.1,0.1-0.2,0.2-0.3,0.3c7.6-3.3,14.7-7.6,22.2-11.2
		c3.8-1.9,8.7-2.1,12.1-4.4c3.3-2.1,5.4-3.5,8.9-4.7c1.6-0.5,1.1,0,2.4-0.9c0.6-0.5,0.9-1.5,1.6-2c0.6-0.4,2.7-1.4,3.4-1.4
		c1.7-0.3,2.5,0.9,4,0.9c3.3,0.1,8.4-2.9,11.1-4.7c4-2.6,7.3-6.3,10.8-9.3c-0.1,0.1-0.2,0.1-0.4,0.2c3.5-2.9,8.6-4.7,12.6-6.9
		c11.4-6.4,21.6-15.4,31.1-24.4c4.6-4.4,9.1-9,13.5-13.6c4.2-4.5,8.7-8.2,13.1-12.5c4.9-4.7,7.6-10,10.5-16.1
		c2.7-5.6,6-8.4,11.2-11.2c-2.1,5.7-5.1,10.5-8.3,15.7c1.9-2.4,25.4-32.5,19.9-36c-2.6-1.6-5.9,1.6-4.8-2.9c1-4.4,5.1-9.1,7.2-13
		c1.1-2,2.2-5.5,4.2-6.9c1.6-1.2,3.7-1.1,5.2-2.6c2.5-2.5,3.4-7.2,4-10.5c-4.1,3.8-9.7,7.9-12,13c-2.2,4.7-4.6,13.5-9.8,15.6
		c-0.2-1.6,0.6-2,0.9-3.5c0.4-1.6,0.1-1.6,0.2-3.3c0.1-3.2,1.3-5.1,2.5-7.9c1.3-3.1,1.4-5.8,3.2-8.7c2-3.3,3.8-6.7,5.5-10.1
		c7.2-14.6,11.5-30.4,13.9-46.5C593.7,347.8,591.4,349,590.8,351 M441.9,56.7c-0.3,0.2-0.2,0.8-0.4,0.2
		C441.2,56.4,441.6,56.9,441.9,56.7 M583.2,309.4c0.9,0,0.7-0.2,0.6,1.2C583,310.8,582.8,310.4,583.2,309.4 M582.6,320.6
		c0.2-0.9,0.5-1.9,0.9-2.7c0.3,2.4,0.7,3.5-0.8,5.3C582.5,322.4,582.5,321.5,582.6,320.6 M577.2,335.5c-0.3,0.2,0,0.5-0.5,0.5
		C577,334.3,576.8,335.8,577.2,335.5 M565,444.8c-0.2,0.4-0.4,0.7-0.6,1.1C564.1,445.2,564.3,444.8,565,444.8 M558.3,412.1
		c-0.1,0.5-0.4,0.6-0.9,0.2v-0.5C557.7,411.9,558,411.9,558.3,412.1 M574.3,216.4c1,1.4,0.5,2.2,0,3.8c-0.7-0.4-1.4-0.8-2.1-1.2
		C572.9,218.1,573.6,217.3,574.3,216.4 M567.4,206.9c0.7,0.2,0.8,0.7,0.3,1.4C566.9,208,567.3,207.6,567.4,206.9 M569.6,228.1
		c-1.6-6.4-3.6-12.7-5.8-18.9c1.7,2.1,2.3,6.2,3.1,8.8C568,221.3,568.9,224.7,569.6,228.1 M562.4,184.7c0.1,0.2,0.3,0.3,0.5,0.5
		c-0.2,0.1-0.4,0.1-0.6,0.2C562.3,185.2,562.3,184.9,562.4,184.7 M561.4,194.9c0.8,2.6,0.5,5.5,0.6,8.2c-1.3-1.5-1.9-4.6-2.7-6.5
		c-0.7-1.6-3.3-5.7-1.6-6.6C561,188.2,560.9,193.3,561.4,194.9 M548.1,155.1c0.3-0.6,0.4-1.3,0.4-2.1c5.3,3,0.8,5.1,1.4,9.3
		c4.7-2.8,5,0.2,6.6,4.4c1.6,4.2,4,8.9,3.4,13.5c-1.2-2.6-2.3-5.3-3.5-7.9c-0.7-1.4-3.3-5.7-4-1.8c-0.2,1.3,6.3,15.3,1.2,12.1
		c-1.6-1-2.3-5.5-2.8-7.2c-1.2-3.3-2.3-6.7-3.4-10C545.8,160.5,542.5,157.2,548.1,155.1 M522.4,130.5c-0.7-0.9-1.4-1.8-2.1-2.7
		C522.7,126.2,524.4,128.6,522.4,130.5 M517.6,120.4c1.1,1.7,2.3,3.4,3.4,5.1C520.4,124.7,516.9,121.2,517.6,120.4 M504.6,87.9
		l-3.1-2.6C503.1,85.6,505.1,85.3,504.6,87.9 M496.6,92.2c4,1.5,6.1,4.6,8.4,8c2.1,3.3,5.3,7.1,6.1,11c-3.2-0.9-6.1-4.7-8.1-6.9
		C499.9,100.7,496.4,96.9,496.6,92.2 M488.3,83.6c0.9,0,1.7,0.1,2.6,0.1c-0.3,1.5,0.1,2.9-1.6,2.7C487.8,86.2,488.3,84.6,488.3,83.6
		 M487.4,89.1c3.1,2.4,5.3,5.9,7.7,9c-2.8-1.3-9.8-6.3-9.9-9.3C486,88.9,486.7,88.9,487.4,89.1 M478.6,82.6c2.2-0.8,3.7,2,2.3,3.4
		c-1.1-0.9-2.1-1.9-3.2-2.7C478,83,478.3,82.8,478.6,82.6 M129,70c3-2.1,5.4-4.7,8.9-5.9C135.4,65.7,131.4,69.4,129,70 M34.6,187.2
		c0,0,0,0.1-0.1,0.2C34.6,187.3,34.6,187.3,34.6,187.2 M12.5,256.5c0.4-0.7,1.7,0,1.9,0.4c0.5,0.7-1.1,6.7-1.2,6.8
		C10.9,263.9,11.9,257.6,12.5,256.5 M10.1,279.9c0.6-0.9,1.2-1.8,1.9-2.6c-0.1,1.8,0.2,10.3-1.7,10.8
		C9.1,288.4,9.5,280.9,10.1,279.9 M10.7,292.7c-0.4,0.2-0.2,0.7-0.9,0.2C10,292.4,10.3,292.4,10.7,292.7 M7.9,304.4
		c0.7-0.6,1.3-1.2,1.9-1.9C12.2,305.3,10.7,306.6,7.9,304.4 M10.4,356.6c-0.3-0.2-0.7-0.4-1-0.5c0.5-0.7,1.1-0.6,1.6,0.2
		C10.8,356.4,10.6,356.5,10.4,356.6 M12,361.8c0-0.2,0-0.4,0.1-0.6C12.7,361.7,12.1,361.5,12,361.8 M12.4,331.8
		c-1.5-7.6-5.1-15.6-1.9-23.2c1.9,2.5,1.1,8.4,1.3,11.4c0.2,4.1,0.6,8.2,1,12.3C12.7,332.2,12.5,332,12.4,331.8 M15.4,376.6
		c-1.4-1.6-3.1-2.6-2-4.5C14.5,373.7,16.3,374.7,15.4,376.6 M20.9,377.7c0-0.7,0.1-1.3,0.2-1.9c0.6,2.3,1.3,4.6,1.9,6.9
		C22.4,381.3,20.8,379.3,20.9,377.7 M26.8,405.1c-1.2-0.7-1.2-0.7-0.7-1.9C27.2,403.5,27.4,404.2,26.8,405.1 M24.2,386.3
		c0.2,0.8,0.5,1.6,0.8,2.4C24.5,388,24.3,387.2,24.2,386.3 M385.3,575.5c-0.4-0.3-0.4-0.6,0.2-0.8
		C385.5,574.7,386.4,575.1,385.3,575.5 M520.6,495.5c-0.9,1.6-1.2-1.2-1.1-1.2C519.7,494.6,521.5,493.8,520.6,495.5 M525.4,485.6
		c1.5-1.6,3-3.1,4.6-4.7C529,482.7,526.8,484.2,525.4,485.6 M537.8,473c-2.2,2.3-4.5,4.7-7,6.9c2-2.7,3.8-6.6,6.8-8.2
		C537.9,472,537.9,472.5,537.8,473 M561.4,445.9c-4.9,6.7-9.9,12.6-15.5,18.7c-0.9,0.9-6.3,7.8-6.5,3.1c-0.1-2.3,5.3-4.1,2.4-5.8
		c3.9-3.2,7.9-6.1,11.3-9.9c3-3.4,5.6-7,9.1-10C561.9,443.2,562.1,444.8,561.4,445.9 M563.4,435.8c0.3-0.1,0.4-0.7,0.5-0.1
		C563.9,436.2,563.7,435.7,563.4,435.8 M567.3,448.2c-0.9-0.6-1.8-1.2-2.6-1.7C566.1,447,567.3,446.8,567.3,448.2 M572.2,370.8
		c-0.6,0.7-1.3,1.1-2.1,1.3c0.1-1.4,0.2-2.8,1.4-3.7C571.9,369.1,572.2,369.9,572.2,370.8 M578.4,392.2c-0.8,2.4-2,4.6-3,6.8
		c0.9-5,2.2-8.9,4.1-13.5C579.2,387.8,579.1,390.1,578.4,392.2 M579,345.7c-0.2-0.6-0.3-1.2-0.5-1.8
		C579.4,345,580.3,345.4,579,345.7 M581.3,339c-0.6-1-2-9.3,0.4-7C583.7,333.8,581.8,337,581.3,339"/>
</g>
</svg>
